<?xml version="1.0" encoding="utf-8"?>
<!-- Generator: Adobe Illustrator 28.1.0, SVG Export Plug-In . SVG Version: 6.00 Build 0)  -->
<svg version="1.1" id="Layer_1" xmlns="http://www.w3.org/2000/svg" xmlns:xlink="http://www.w3.org/1999/xlink" x="0px" y="0px"
	 viewBox="0 0 2700 2700" style="enable-background:new 0 0 2700 2700;" xml:space="preserve">
<style type="text/css">
	.st0{opacity:0.1;}
	.st1{fill:#402E8D;}
</style>
<g class="st0">
	<path class="st1" d="M1110.9,2231.6c-30.5-44-110.5-64.1-172-64.1c-18.9,0-36.5,1.7-52.2,5.1c-57.9,12.5-107.2,23.7-150.8,33.6
		c-116.6,26.5-187,42.5-245.5,42.5c-48.7,0-90.5-10.9-148.9-38.8c-61-29.2-105.8-56.9-141.8-79.2c-56.4-35-93.7-58-144.7-58
		c-16.7,0-34.7,2.6-54.9,7.8v4.3c20.2-5.3,38.2-7.9,54.9-7.9c49.8,0,86.7,22.8,142.5,57.4c36.1,22.3,81,50.2,142.2,79.4
		c59.1,28.2,101.3,39.2,150.7,39.2c59,0,129.5-16,246.4-42.6c43.5-9.9,92.9-21.1,150.7-33.5c15.4-3.3,32.7-5,51.4-5
		c60.5,0,139,19.5,168.6,62.3c13,18.9,15.2,40.3,6.3,63.8c-17.7,46.8-100.2,88.1-173,124.6c-44,22-85.6,42.9-106.9,62.2
		c-62.5,56.5-47.5,133-22.1,215.5h4.4c-25.2-81.7-40.3-157.3,20.5-212.4c20.9-18.9,62.3-39.6,106-61.5
		c73.5-36.8,156.8-78.5,175-126.8C1127,2274.4,1124.7,2251.7,1110.9,2231.6z"/>
	<path class="st1" d="M19.1,1751.4c8.5-185.1,126.5-320,221.3-428.4l6.7-7.7c11-11.6,36.4-42.5,34.4-79.9
		c-1.2-22.8-12.5-43.4-33.5-61.2c-12.6-10.7-24.3-20.7-35.4-30.2c-49-42.1-87.8-75.3-147.9-117c-22-15.2-43.6-29.6-64.7-43.2v2.1
		c20.8,13.4,42.1,27.6,63.7,42.5c60.1,41.6,98.8,74.9,147.8,116.9c11.1,9.5,22.8,19.5,35.4,30.2c20.6,17.5,31.7,37.7,32.9,60
		c2,36.7-23,67.2-33.9,78.6l-6.8,7.7c-95,108.6-213.2,243.8-221.7,429.5c-0.9,19.8-8.6,31.9-17.3,36v2.1
		C9.4,1785.6,18,1773.3,19.1,1751.4z"/>
	<path class="st1" d="M1070,2512.6c-7.9-7.9-18.1-11.9-30.5-11.9c-37.7,0-84.9,37.3-100.6,54.3c-58,62.7-64.7,97.8-53,145h3.1
		c-11.5-46.6-5-81.2,52.1-143c15.5-16.7,61.7-53.3,98.4-53.3c11.5,0,21,3.7,28.3,11.1c12.5,12.6,18.8,35.9,18.6,69.3
		c-0.2,40.6-7.2,78-16,116h3.1c8.8-37.9,15.7-75.4,15.9-116C1089.7,2549.8,1083.1,2525.8,1070,2512.6z"/>
	<path class="st1" d="M61,1753.3c7.9-170.4,120.5-299.2,211-402.7l6.8-7.7c19-21.7,34.4-41,45.8-57.3
		c14.1-20.1,40.3-57.6-21.6-117.4c-66.7-64.4-138.8-123.6-214.3-175.9C57.9,971,28.3,951.8,0,934.5v2.1
		c27.9,17.1,57.2,36.1,87.6,57.2c75.4,52.3,147.4,111.4,214,175.8c60.8,58.7,35.1,95.3,21.4,115c-11.3,16.2-26.7,35.4-45.6,57.1
		l-6.8,7.7c-90.7,103.7-203.5,232.7-211.4,403.8c-3.7,79.3-17.7,125.5-44.3,145.3c-5.3,3.9-10.2,6-14.9,6.6v1.8
		c5.1-0.5,10.3-2.7,16-6.9C43,1879.8,57.3,1833.3,61,1753.3z"/>
	<path class="st1" d="M793.4,534.5c-11.7-46-105.7-58.4-214.7-72.6c-26.9-3.5-54.8-7.2-81.8-11.4
		c-119.4-18.8-228.8-78.8-334.5-136.8c-52.9-29-107-58.7-162.4-83.1v4.6c54.6,24.2,108.1,53.5,160.4,82.2
		c106,58.2,215.7,118.3,335.9,137.3c27.1,4.3,55,7.9,81.9,11.4c102.9,13.5,200.2,26.2,211.1,69.5c8.5,33.7-35.4,84.9-134.3,156.4
		C516.2,792.3,399.8,839.1,288.6,839.1c-63.2,0-125.9-15.7-186.3-46.6C64.7,773.2,31.6,749.7,0,726.1v5.2
		c31,23.1,63.5,45.9,100.4,64.8c61,31.3,124.3,47.1,188.2,47.1c0,0,0,0,0,0c112.2,0,229.4-47,368.9-147.9
		C759.3,621.7,802.5,570.6,793.4,534.5z"/>
	<path class="st1" d="M15.6,1481.6c16.2-28.4,37.1-54.2,57.4-79.2c29.2-36,59.5-73.2,75.8-118.9c28.7-80.6-27.5-117.9-87.1-157.3
		c-5.5-3.6-11-7.3-16.6-11.1c-9.8-6.6-19.1-12.9-28.2-19.2c-4.5-3.1-10-7.1-16.8-12.1v2.2c6.3,4.6,11.6,8.4,15.8,11.3
		c9.1,6.3,18.4,12.6,28.3,19.3c5.5,3.7,11,7.4,16.5,11c58.9,39,114.6,75.9,86.4,155.2c-16.2,45.4-46.3,82.5-75.5,118.4
		c-20.3,25-41.3,50.9-57.6,79.4c-4.9,8.6-9.3,19.7-14,31.5v4.9c0.5-1.2,1-2.5,1.5-3.7C6.2,1501.4,10.7,1490.2,15.6,1481.6z"/>
	<path class="st1" d="M1898.3,2522.3c-2.3-20.3-15.1-37.9-38-52.3c-41.4-26-127.9-37.7-195.3-37.7c-13.2,0-25.2,0.4-35.8,1.3
		c-65.8,5.5-134.3,18.4-209.5,39.7c-10.8,3-21.5,6.3-31.8,9.8c-125.3,41.6-197.8,107.5-232.6,217h3.2
		c34.7-108,106.5-173,230.4-214.1c10.3-3.4,21-6.7,31.7-9.7c75-21.2,143.3-34.1,208.9-39.6c10.5-0.9,22.5-1.3,35.6-1.3
		c67,0,152.8,11.5,193.7,37.2c22.1,13.9,34.4,30.8,36.6,50.1c5.5,48.6-51.2,105.7-96.8,151.6c-9.2,9.3-17.8,17.9-25.2,25.8h4.1
		c7-7.4,14.8-15.3,23.2-23.7C1846.7,2630,1904,2572.3,1898.3,2522.3z"/>
	<path class="st1" d="M752.3,2369.7c9.7-6.1,20.9-6.9,30.6-6.9c4.6,0,9.2,0.2,14,0.4c4.8,0.2,9.8,0.5,14.8,0.5
		c11.2,0,25.7-1.1,39-9.2c34.1-21.1,45.4-45.6,41.5-59.5c-2.6-9.1-11.5-14.4-24.3-14.4c-11.5,0-26,4.1-42.1,11.9
		c-10.3,5-19.5,13.8-28.5,22.4c-10.8,10.4-22,21.1-34.8,24.6c-4,1.1-7.9,1.6-11.9,1.6c-8.1,0-15.4-2.1-23.1-4.3
		c-7.6-2.2-15.4-4.4-24.1-4.4c-3,0-6,0.3-9,0.8c-15.2,2.8-25.6,12.5-35.7,21.8c-8.4,7.8-17.1,15.8-28.5,19.8
		c-12.9,4.5-30.4,6.7-53.5,6.7c-30,0-63.3-3.8-90-6.8c-7.7-0.9-14.8-1.7-21.2-2.3c-55.5-5.6-113.3-23-176.5-53.2
		c-66.9-32-114.8-61.6-153.4-85.5c-21-13-42.5-19.6-63.9-19.6c-27.2,0-51.3,10.3-71.9,26.2v2.2c20.5-16.1,44.6-26.7,71.9-26.7
		c21,0,42.2,6.5,63,19.4c38.5,23.9,86.5,53.6,153.5,85.6c63.4,30.3,121.4,47.7,177.1,53.3c6.3,0.6,13.5,1.4,21.2,2.3
		c26.8,3,60.1,6.8,90.2,6.8c23.3,0,41-2.2,54.1-6.8c11.8-4.1,20.6-12.3,29.1-20.2c10.3-9.6,20.1-18.6,34.8-21.4
		c2.9-0.5,5.7-0.8,8.6-0.8c8.4,0,16.1,2.2,23.6,4.4c7.5,2.1,15.2,4.4,23.6,4.4c4.2,0,8.3-0.5,12.4-1.7c13.3-3.6,24.6-14.5,35.6-25
		c8.8-8.5,18-17.3,28-22.1c15.8-7.6,30.1-11.7,41.3-11.7c12.2,0,20.2,4.6,22.6,13.1c3.8,13.2-7.4,36.8-40.7,57.5
		c-12.8,8-27.1,9-38,9c-4.9,0-9.9-0.2-14.7-0.5c-4.7-0.2-9.5-0.4-14.1-0.4c-9.9,0-21.5,0.9-31.6,7.2c-11.1,7-19.6,24.6-27.7,41.7
		c-4.9,10.3-9.6,20-14.5,26.8c-41.1,55.9-43.6,116.1-34.7,189.3c3,25.2,8.2,49.9,14.3,74.1h1.9c-6.2-24.2-11.3-49.1-14.4-74.3
		c-8.8-72.8-6.4-132.6,34.4-188.1c5-6.9,9.7-16.7,14.7-27C733.3,2393.8,741.6,2376.4,752.3,2369.7z"/>
	<path class="st1" d="M940.5,365.6c-10.3,0-24.9,6.6-35.6,37.9c-12,35.3,11.2,43.5,35.7,52.1c4.3,1.5,8.8,3.1,13.1,4.8
		c9.7,3.9,17.8,5.9,24.2,5.9c7.1,0,12.2-2.4,15.1-7.1c9.2-14.6-5.5-46.8-12.3-60C969.8,378.2,954.7,365.6,940.5,365.6z M990.5,457.7
		c-4.8,7.6-16.9,7.6-35.7,0c-4.4-1.8-8.9-3.3-13.2-4.9c-24.1-8.5-45-15.9-33.9-48.3c8-23.5,19.4-35.9,32.8-35.9
		c13.1,0,27.2,12,37.6,32.1C991.6,427.2,996.3,448.5,990.5,457.7z"/>
	<path class="st1" d="M162.2,1349.5c2.7-3.2,5.4-6.4,8.2-9.6c38.6-45.4,78.6-92.4,33.2-148.6c-35.1-43.5-88.1-79.3-134.9-110.9
		c-9.7-6.6-18.8-12.7-27.9-19c-6-4.2-14.2-10.2-23.7-17.1c-5.2-3.8-10.9-8-17-12.4v2.2c5.7,4.1,11.1,8,16,11.6
		c9.5,6.9,17.7,12.9,23.8,17.1c9,6.3,18.2,12.4,27.9,19c46.6,31.5,99.5,67.3,134.5,110.5c44.5,55,5,101.4-33.1,146.3
		c-2.7,3.2-5.5,6.4-8.2,9.6c-33.5,40-76.4,93.5-110.3,153.1C29.9,1537.6,13,1575.7,0,1614.7v5.9c13.2-40.8,30.6-80.5,52.1-118.3
		C85.9,1442.9,128.7,1389.4,162.2,1349.5z"/>
	<path class="st1" d="M975.8,2690c-2.6-9.6-7.1-16.4-11.5-23c-6.6-10-12.4-18.7-10.1-35.1c3.1-22.4,30.2-77.7,59.5-77.7
		c0.3,0,0.6,0,0.9,0c14.6,0.6,23.9,4.3,27.6,11c6.8,12.3-5.4,33.2-15.2,49.9c-5.3,9.1-9.9,16.9-10.7,22c-1.6,10.1,2.9,15.9,7.2,21.5
		c3.5,4.5,6.7,8.7,6.6,14.9c-0.3,13-6.1,19.1-12.2,25.6c-0.3,0.3-0.6,0.6-0.8,0.9h2.5c6.2-6.6,12.1-13,12.4-26.5
		c0.2-6.8-3.5-11.5-6.9-16c-4.1-5.3-8.4-10.8-6.9-20.2c0.8-4.8,5.3-12.5,10.5-21.4c10-17.1,22.5-38.5,15.3-51.7
		c-4.1-7.4-13.6-11.3-29.1-11.9c-0.3,0-0.6,0-0.9,0c-30.2,0-58.1,56.4-61.3,79.2c-2.4,17.1,3.8,26.4,10.4,36.4
		c4.3,6.5,8.7,13.1,11.2,22.5c1,3.7,1.5,6.8,1.8,9.6h1.8C977.4,2697,976.8,2693.8,975.8,2690z"/>
	<path class="st1" d="M128,742.2c45.6,23.4,84.3,34.2,121.9,34.2c39.3,0,74.3-11.8,114.8-25.5c23-7.8,49-16.6,78.6-24
		c15-3.8,28-4.2,36.6-4.2c5.7,0,11.2,0.2,16.5,0.4c5,0.2,9.8,0.4,14.5,0.4c24.3,0,43.7-5.8,64.9-34.4c14.3-19.3,19.7-34.2,24.4-47.4
		c7.1-19.7,12.7-35.2,43.8-57.5c8-5.7,19.4-10.2,30.5-14.5c17.8-7,33.1-13,33.8-23.3c0.5-8.3-9.1-17.5-30.4-29.1
		c-25.5-13.8-61.8-15.7-94-15.7c-14.4,0-29.4,0.4-44,0.9c-14.6,0.4-29.8,0.9-44.3,0.9c-32.3,0-55-2.2-73.4-7.3
		c-104.4-28.4-202.3-82-288.7-129.4c-45.3-24.9-89.3-49-133.2-69.7v3.3c43.4,20.5,87,44.4,131.8,69
		c86.5,47.4,184.6,101.2,289.4,129.7c18.7,5.1,41.6,7.4,74.2,7.4c14.5,0,29.7-0.4,44.4-0.9c14.6-0.4,29.6-0.9,43.9-0.9
		c31.8,0,67.7,1.8,92.6,15.3c19.6,10.6,29.3,19.5,28.8,26.3c-0.5,8.3-15.8,14.3-31.9,20.7c-11.2,4.4-22.8,9-31.1,14.9
		c-31.9,22.8-37.9,39.5-44.8,58.9c-4.7,13-9.9,27.7-24,46.6c-20.4,27.6-39,33.2-62.4,33.2c-4.6,0-9.4-0.2-14.4-0.4
		c-5.3-0.2-10.9-0.4-16.6-0.4c-8.7,0-22,0.4-37.3,4.3c-29.6,7.4-55.7,16.3-78.8,24c-40.3,13.6-75,25.4-113.9,25.4
		c-37.1,0-75.4-10.8-120.6-33.9C88.1,718.4,50.9,690.2,15,663c-5-3.8-10-7.6-15-11.3v3.8c4.4,3.3,8.8,6.7,13.2,10
		C49.2,692.7,86.5,720.9,128,742.2z"/>
	<path class="st1" d="M1588.1,2616.5c-2.9-1.2-7.4-1.9-13.3-1.9c-34.8,0-108.6,20.8-109.3,21c-8.2,2.3-16.5,4.9-24.4,7.5
		c-40.8,13.5-71,31.7-93,56.9h2.4c21.7-24.4,51.3-42,91.2-55.2c7.9-2.6,16.1-5.2,24.3-7.5c0.7-0.2,74.2-20.9,108.8-20.9
		c5.7,0,9.9,0.6,12.6,1.7c13.3,5.7,8.4,20.9-2.3,54.2c-2.6,8-5.6,17.3-8.7,27.7h1.9c3-10.1,6-19.3,8.5-27.1
		C1597.5,2639.5,1602.9,2622.8,1588.1,2616.5z"/>
	<path class="st1" d="M1506.7,2670.5c-8.3,0-18.4,1.7-29.9,4.9c-7.7,2.2-15.3,4.5-22.6,7c-15.4,5.1-28.8,11-40.5,17.7h6.3
		c10.4-5.5,22-10.4,35.2-14.8c7.3-2.4,14.9-4.8,22.5-6.9c11.3-3.2,21.1-4.8,29.1-4.8c15,0,24,5.5,27,16.3c0.8,3.1,1,6.6,0.9,10.2h3
		c0.1-4-0.1-7.7-1-11C1534.2,2680.5,1527.2,2670.5,1506.7,2670.5z"/>
	<path class="st1" d="M1695.1,2571.3c-5.2-10.5-23.2-14.2-55.5-11.6c-57.6,4.8-118.3,16.3-185.5,35.3c-9,2.5-17.8,5.3-26.3,8.1
		c-61,20.2-103.6,51.3-131.3,96.8h2.1c27.5-44.6,69.6-75.1,129.7-95.1c8.5-2.8,17.3-5.5,26.3-8.1c67.1-19,127.7-30.5,185.2-35.3
		c6.6-0.5,12.7-0.8,18-0.8c20.2,0,31.9,3.7,35.7,11.4c6.7,13.5-12.2,38.5-30.4,62.6c-3.2,4.3-6.5,8.6-9.6,12.8
		c-12.7,17.2-23.9,34.8-34.1,52.4h2.1c10-17.3,21-34.5,33.4-51.4c3.1-4.3,6.4-8.5,9.6-12.8C1684,2610.1,1702.3,2585.8,1695.1,2571.3
		z"/>
	<path class="st1" d="M1755.7,2602.2c27.7-26,38.8-46.6,33-61.1c-6.9-17.3-37.4-26.1-90.7-26.1c-17.8,0-38,1-61.8,2.9
		c-60.3,5-123.6,17-193.5,36.8c-9.5,2.7-18.9,5.6-28.1,8.6c-80,26.6-134.1,70.8-165.8,136.7h2c31.6-64.9,85.2-108.7,164.4-135
		c9.2-3.1,18.6-6,28.1-8.6c69.8-19.7,132.9-31.7,193.1-36.7c23.8-2,43.9-2.9,61.7-2.9c52.5,0,82.5,8.4,89,24.9
		c5.5,13.8-5.5,33.7-32.5,59.2c-5.4,5.1-10.7,10.1-15.1,14.5c-20.7,20.8-38.6,38.8-52,57c-6.6,9-12.9,18.3-19,27.6h2.1
		c5.9-9,11.9-17.8,18.3-26.5c13.3-18.1,31.1-36,51.8-56.8C1745,2612.2,1750.3,2607.3,1755.7,2602.2z"/>
	<path class="st1" d="M155.6,688.3c44.3,22.7,87.8,33.8,132.9,33.8c25.3,0,79.8-10.3,127.3-27.6c41.6-15.1,91.3-40.2,91.4-73.9
		c0.1-39.7-76.6-61.8-122.4-75c-10-2.9-18.6-5.3-24.3-7.4c-82.1-29.7-163.6-67.3-256.4-118.2c-35.4-19.4-70-38.4-104.1-55.4v2
		c33.8,16.9,68.1,35.7,103.3,55c92.9,51,174.5,88.6,256.6,118.3c5.8,2.1,14.4,4.6,24.4,7.5c45.4,13,121.3,34.9,121.1,73.3
		c-0.2,58.3-164.6,99.7-217,99.7c-44.8,0-88-11-132.1-33.6c-36.7-18.8-71.7-45.3-105.5-71C34.5,603.2,17.6,590.5,0,578v2.2
		c17.2,12.2,33.7,24.7,49.8,36.9C83.7,642.8,118.8,669.4,155.6,688.3z"/>
	<path class="st1" d="M174.8,650.9c38.2,19.6,75.4,29.1,113.8,29.2c33.3,0,76.7-9.9,93.5-31.5c7.3-9.4,9.3-20.5,6.1-32.8
		c-7.6-29.1-68.5-49.7-113-64.7c-14.4-4.9-26.8-9-34.4-12.6c-51.4-23.9-102.3-51.8-151.5-78.7l-5.5-3c-28.4-15.6-56.3-30.9-83.7-45
		v2c27.1,14,54.7,29.1,82.8,44.6l5.5,3c49.2,27,100.1,54.9,151.6,78.8c7.7,3.6,20.2,7.8,34.6,12.7c41.6,14.1,104.5,35.3,111.9,63.4
		c3.1,11.8,1.1,22.3-5.8,31.3c-16.4,21.2-59.2,30.8-92.1,30.8c-37.9,0-74.9-9.5-112.8-29c-33.4-17.1-66.9-42.5-99.3-67.1
		C52.8,564.4,27.6,545.3,0,527.3v2.2c27.2,17.8,52,36.6,75.2,54.2C107.7,608.3,141.2,633.7,174.8,650.9z"/>
	<path class="st1" d="M1064.9,35.9c3-12.1,5.9-24,8.7-35.9h-3.1c-2.7,11.7-5.6,23.4-8.5,35.2c-5.5,22.3-11.2,45.3-15.8,68.7
		c-15.4,78.3-28.6,180.9,5.7,280.6c13.9,40.5,48.6,73.6,79.3,102.7c27.2,26,50.8,48.4,48.7,67.3c-1,8.7-7.3,16.4-19.4,23.6
		c-5.6,3.3-15.1,5-28.3,5c-46.1,0-127.3-20.3-187.4-40.5c-65.4-21.9-145.9-56.8-158.4-98.7c-4-13.3-0.7-26.8,9.7-40
		c13.4-17,27.7-31.9,41.6-46.3c27.3-28.4,53.1-55.2,70.2-95c24.4-56.8,27.3-116,8.8-176c-4.5-14.5-9-27.9-13-39.7
		c-5.9-17.5-11-32.7-14.5-46.9h-3.1c3.5,14.4,8.8,30,14.8,47.8c4,11.8,8.5,25.2,13,39.7c18.3,59.3,15.4,117.8-8.7,173.9
		c-16.9,39.3-42.5,65.9-69.6,94.1C821.4,370,807,384.9,793.6,402c-11.1,14-14.5,28.4-10.2,42.8c12.9,43.1,94.3,78.5,160.3,100.7
		c60.3,20.2,142,40.6,188.4,40.6c13.7,0,23.8-1.8,29.8-5.4c12.9-7.7,19.7-16.1,20.8-25.8c2.3-20.3-21.7-43.2-49.6-69.8
		c-30.4-28.9-64.8-61.8-78.5-101.6c-34-99-20.8-201.1-5.5-279C1053.7,81.1,1059.4,58.2,1064.9,35.9z"/>
	<path class="st1" d="M567.8,1439.3c-3,5-5.8,9.7-8.3,13.1c-30.4,42.8-66.3,80.7-106.7,122.3c-5.4,5.6-11,11.3-16.7,17
		c-33.4,33.7-67.9,68.6-88.6,109.8c-8,16-10.5,28.4-7.1,36.1c1.5,3.5,4.2,5.7,7.9,6.8c1.5,0.4,3.2,0.7,5.1,0.7
		c7.4,0,17.2-3.6,28.4-10.3c22.2-13.4,43.3-30,63.7-46.1c16.7-13.1,34-26.7,51.8-38.5c71.8-47.6,119.3-79.1,141.5-167.8
		c4.6-18.4,7.3-60.3-6.9-78.5c-4.9-6.3-11.3-9.2-19.3-8.9C594,1395.8,578.9,1420.9,567.8,1439.3z M613.9,1396.7
		c6.7,0,12.2,2.8,16.5,8.2c13.8,17.7,11.1,58.9,6.6,77c-22,88.1-69.2,119.4-140.7,166.7c-17.9,11.8-35.2,25.5-51.9,38.6
		c-20.4,16-41.4,32.6-63.5,46c-13.5,8.1-24.9,11.5-32,9.5c-3.2-0.9-5.4-2.9-6.7-5.8c-3.1-7-0.5-19.3,7.1-34.5
		c20.5-41,54.9-75.7,88.2-109.4c5.7-5.7,11.3-11.4,16.7-17c40.5-41.7,76.5-79.7,106.9-122.5c2.5-3.5,5.3-8.2,8.4-13.2
		c10.8-18,25.7-42.6,43.2-43.5C613,1396.7,613.4,1396.7,613.9,1396.7z"/>
	<path class="st1" d="M193.6,614c12,6.1,45.6,17.1,70,17.1c8.7,0,15.4-1.4,19.7-4.3c9.5-6.2,13.7-12,12.8-17.7
		c-1.9-12.6-29.4-20.3-51.5-26.4c-9.1-2.5-16.9-4.7-21.4-6.8c-52.7-24.4-104.2-52.7-154-80l-5.5-3C42.2,481.1,20.9,469.4,0,458.4
		v3.4c20.5,10.8,41.2,22.2,62.3,33.8l5.5,3c49.8,27.3,101.4,55.6,154.1,80.1c4.7,2.2,12.6,4.4,21.9,6.9c20.1,5.6,47.7,13.3,49.4,24
		c0.7,4.4-3.2,9.3-11.5,14.7c-3.9,2.5-10,3.8-18.1,3.8c-23.6,0-57.2-10.9-68.6-16.8c-30-15.4-62-39.6-93-63.1
		c-29.6-22.4-63.2-47.9-102-71.1v3.5c38,22.9,71.1,47.9,100.3,70C131.3,574.2,163.4,598.5,193.6,614z"/>
	<path class="st1" d="M103.6,1755.3c7.2-155.5,114.4-278.1,200.5-376.6l6.8-7.8c102.4-117.2,98.3-158.2,50.2-205.6
		c-52.7-52-135.7-130.1-248.1-208C74.5,930.8,36.6,906.4,0,884.8v3.5c36.1,21.4,73.4,45.3,111.2,71.5
		c112.2,77.8,195.1,155.8,247.7,207.7c46.7,46,50.5,86.1-50.4,201.5l-6.8,7.8c-86.4,98.8-194,221.8-201.2,378.4
		c-6.8,147-62.1,190.1-100.6,202.2v3.1C39.3,1948.5,96.7,1905.2,103.6,1755.3z"/>
	<path class="st1" d="M1842.3,2518.7c-17.6-37.6-88.9-45.5-145.5-45.5c-19.9,0-41.5,0.9-64.1,2.8c-63,5.2-128.9,17.7-201.4,38.2
		c-10.1,2.9-20.2,6-30,9.2c-62.4,20.7-110.4,50.7-146.7,91.6c-21.7,24.5-38.9,52.7-52,84.9h1.9c34.7-85.7,98.7-142.1,197.4-174.8
		c9.7-3.2,19.8-6.3,29.9-9.2c72.4-20.5,138.2-33,201.1-38.2c22.6-1.9,44.1-2.8,63.9-2.8c56.1,0,126.7,7.7,143.9,44.4
		c18.9,40.2-27,83.4-57.4,112c-5.2,4.9-10,9.5-14.1,13.6c-19.5,19.6-36.4,36.6-47.9,52.3c-0.7,0.9-1.3,1.8-2,2.7h2.2
		c0.4-0.6,0.8-1.1,1.2-1.7c11.5-15.6,28.3-32.5,47.8-52.1c4.1-4.1,8.9-8.7,14.1-13.5C1815.3,2603.8,1861.8,2560.1,1842.3,2518.7z"/>
	<path class="st1" d="M606.3,2421.8c-26.7-6.9-55.4-7.3-83.1-7.7c-16-0.2-32.6-0.5-48.4-2c-75.5-7.2-140.3-24.7-203.7-55
		c-69-33-118-63.3-157.4-87.7c-14.3-8.8-28.3-13.3-41.8-13.3c-25.1,0-51,16.4-71.9,43.9v3c20.7-28.2,46.7-45.1,71.9-45.1
		c13.1,0,26.9,4.4,40.8,13.1c39.4,24.4,88.5,54.8,157.6,87.8c63.6,30.4,128.6,47.9,204.3,55.1c15.9,1.5,32.5,1.8,48.5,2
		c27.6,0.4,56.2,0.9,82.7,7.7c41.2,10.6,39.8,40.7,33.9,76.1c-7,42.2-12.8,83.9-7,131.4c2.9,23.6,7.4,46.6,12.8,69h1.9
		c-5.4-22.5-10-45.6-12.9-69.2c-5.7-47.2,0.1-88.9,7-130.9C647.3,2465,648.9,2432.7,606.3,2421.8z"/>
	<path class="st1" d="M765.8,51.9c41.1,128.1,57.8,197.6-44.2,256.6c-16.7,9.7-35.8,16.8-56.5,21.2c-17.6,3.8-36.9,5.7-57.5,5.7
		c-189.7,0-450.3-158.5-590.3-243.7l-4.8-2.9C8.3,86.2,4.1,83.7,0,81.2v3.5c3.6,2.2,7.3,4.4,11,6.7l4.8,2.9
		C156,179.6,417,338.4,607.6,338.4c20.8,0,40.3-1.9,58.1-5.7c21.1-4.5,40.4-11.7,57.4-21.6C827.2,251,810.3,180.6,768.7,51
		c-5.3-16.4-10.7-33.5-15.8-51h-3.1C754.9,17.8,760.5,35.2,765.8,51.9z"/>
	<path class="st1" d="M526.3,33.6c1.2,4.5,2.9,10.1,4.8,16.3c5.4,17.7,4.4,29.7-2.9,35.6c-3.7,2.9-9,4.4-15.9,4.4
		c-29.3,0-78-26.1-94-34.7c-7.8-4.2-13.7-7.3-18.3-9.7l-24.6-12.1c-22.6-11-44.6-22.2-65.9-33.4h-3.8c22.3,11.7,45.3,23.5,68.9,35
		l24.6,12.1c4.6,2.3,10.5,5.4,18.3,9.6c16.1,8.6,65.2,34.9,94.9,34.9c7.3,0,13.1-1.6,17.1-4.8c8-6.4,9.1-19,3.5-37.5
		c-1.9-6.2-3.6-11.8-4.8-16.3c-2.9-10.8-5.8-21.8-8.5-33.1h-1.8C520.4,11.4,523.4,22.6,526.3,33.6z"/>
	<path class="st1" d="M709.3,70.1c16.6,51.9,32.6,116.9,7.7,159.8c-12.3,21.3-33.9,35.3-64.2,41.8c-13.5,2.9-28.7,4.4-45.1,4.4
		C434.5,276,183.2,123.1,48.2,41L23.3,25.9c-7.6-4.6-15.4-8.9-23.3-13v2c7.6,3.9,15,8.1,22.4,12.5l24.9,15.1
		C182.4,124.7,434,277.8,607.6,277.8c16.5,0,31.8-1.5,45.5-4.4c30.8-6.6,52.8-20.9,65.4-42.6c25.2-43.6,9.2-109.1-7.5-161.3
		c-7.2-22.4-14.3-45.6-20.4-69.5h-1.9C694.8,24.1,702,47.5,709.3,70.1z"/>
	<path class="st1" d="M566.9,22.8c1.1,4.1,2.6,9.1,4.4,14.9c8.7,28.6,21.9,71.7,9.4,91.6c-5.1,8.1-12.9,13.4-23.4,15.8
		c-4.2,0.9-8.9,1.4-14,1.4c-43.8,0-109.6-35.3-145-54.2c-6.9-3.7-12.8-6.9-17.2-9.1l-3.1-1.5c-3.5-1.7-6.7-3.3-9.7-4.8l-11.6-5.7
		C309,47.7,263.7,23.8,221.9,0h-3.6c42.6,24.3,88.9,48.8,137.8,72.7l11.6,5.7c3,1.5,6.2,3.1,9.7,4.8l3.1,1.5
		c4.4,2.2,10.3,5.4,17.2,9c35.5,19,101.5,54.5,145.8,54.5c5.2,0,10-0.5,14.4-1.5c10.9-2.4,19.1-8,24.5-16.6
		c12.9-20.6-0.4-64.2-9.2-93.1c-1.8-5.8-3.3-10.7-4.4-14.8c-2-7.4-3.9-14.8-5.8-22.4H561C562.9,7.7,564.9,15.3,566.9,22.8z"/>
	<path class="st1" d="M607.5,12c8.5,32,17.3,65.1,18.3,99.3c1.2,44.2-16,69.4-51.1,75.1c-5.2,0.8-10.9,1.3-16.9,1.3
		c-61,0-148.3-43.6-195.3-67c-4.6-2.3-8.8-4.4-12.6-6.2l-11.6-5.7C265.3,73.1,197.7,36,139.6,0h-3.4
		c58.7,36.5,127.3,74.2,201.3,110.4l11.6,5.7c3.8,1.9,8,4,12.6,6.2c47.1,23.5,134.6,67.1,196.1,67.1c6.1,0,11.9-0.4,17.2-1.3
		c36.2-5.9,53.9-31.8,52.6-77c-0.9-34.4-9.8-67.6-18.3-99.7c-1-3.8-2-7.7-3.1-11.5h-1.9C605.4,4,606.4,8,607.5,12z"/>
	<path class="st1" d="M669.3,82.9c0.9,2.7,1.8,5.5,2.7,8.3c9.6,29.2,19.5,59.4,3.5,88.5c-13.4,24.3-40.4,44-69,50.2
		c-2.9,0.6-5.9,1.1-8.8,1.5c-7.1,0.8-14.6,1.3-22.3,1.3c-80.6,0-175.1-46.4-244.1-80.4l-11.6-5.7C231.2,103.1,145.6,51.1,70,5.1
		c-3.2-1.9-6-3.6-8.4-5.1h-3.5c5.7,3.5,10.9,6.6,10.9,6.6c75.6,46,161.2,98.1,249.9,141.5l11.5,5.7c69.2,34,163.9,80.5,244.9,80.5
		c7.7,0,15.3-0.4,22.5-1.3c2.9-0.3,5.9-0.8,8.9-1.5c29-6.3,56.6-26.4,70.2-51.1c16.4-29.8,6.3-60.4-3.4-89.9
		c-0.9-2.8-1.8-5.5-2.7-8.2C662.5,56,654.2,28.5,647.4,0h-1.9C652.4,28.7,660.8,56.4,669.3,82.9z"/>
	<path class="st1" d="M604,1339.4c-26.3,6.5-49.3,42.9-67.8,72.2c-6.5,10.2-12.6,19.9-17.9,26.8c-29.8,38.5-63.4,73.1-95.9,106.5
		c-8.5,8.7-19.1,18.6-30.4,29c-33.5,31-75.1,69.6-87.8,105c-10.6,29.7-4.4,58.1,1.7,85.5c5,22.5,10.1,45.8,6.1,69.9
		c-2.5,15-11.6,29.7-21.2,45.4c-11.5,18.7-23.4,38.1-24.1,58.8c-0.2,7.1,0.8,14.1,3.2,20.8c7.9,22.2,16.2,32.6,26,32.6
		c9.9,0,20.3-10.1,36-34.9c15-23.7,20.9-51.1,26.6-77.7c5.7-26.6,11.6-54.2,26.8-78c28.8-45.4,79.5-78.8,124.3-108.3
		c3.8-2.5,7.5-5,11.2-7.4c74.4-49.3,133.1-88.2,159.3-193c6.9-27.7,5.1-98.4-23.1-134.5C643.2,1340.6,625.2,1334.2,604,1339.4z
		 M654.5,1359.9c25.3,32.4,30.3,100.9,22.6,131.9c-25.9,103.7-84.2,142.3-158,191.2c-3.7,2.4-7.4,4.9-11.2,7.4
		c-45,29.7-96.1,63.3-125.2,109.2c-15.4,24.3-21.4,52.1-27.2,79c-5.6,26.3-11.5,53.5-26.2,76.7c-10.5,16.6-22.7,33.5-33.5,33.5
		c-8.3,0-15.9-10-23.2-30.6c-2.3-6.4-3.3-12.9-3.1-19.7c0.7-20,12.4-39,23.7-57.4c9.8-15.9,19-30.9,21.6-46.4
		c4.2-24.7-1-48.3-6.1-71.1c-6.3-28.2-12.2-54.9-1.8-83.8c12.4-34.6,53.8-73,87-103.8c11.3-10.5,22-20.4,30.5-29.1
		c32.6-33.5,66.3-68.2,96.1-106.8c5.5-7,11.6-16.8,18.1-27.1c18.2-28.8,40.9-64.7,66-70.9c4.6-1.1,9-1.7,13.2-1.7
		C632.2,1340.6,644.5,1347.1,654.5,1359.9z"/>
	<path class="st1" d="M631.6,1209.1c-14.3-20.6-26.7-23.2-39.9-26c-9.1-1.9-18.5-3.9-29.2-12l-0.9-1c-30.6-34.2-133.2-146-168-146
		c-4.1,0-7.3,1.4-9.5,4.3c-4.6,6.1-4.4,18.2,0.7,37.3c3,11.3,32.1,26.9,62.9,43.4c25.6,13.8,52.1,28,61.1,38.7
		c8.1,9.6,18.7,22.8,17.7,27.4c-0.3,1.2-1.6,2-4,3.1c-5.4,2.7-13.5,6.7-9.1,25.6c3,13.1,11.1,26.1,18.9,38.7
		c7.3,11.7,14.2,22.8,17,33.5c7.7,29.5-40.7,83.7-72.7,119.5c-10.6,11.8-19.7,22-25.5,29.7c-23.3,30.9-52.4,59.6-80.4,87.2
		c-54.6,53.9-111.1,109.5-131,186.4c-29.7,114.9-35.6,216.4-17.6,301.6c9.6,45.5,42.7,108.9,74.8,108.9c20,0,34.6-24,43.3-71.4
		c33.6-182.5,125.2-243.3,213.9-302c78.5-52,152.7-101.2,184.6-228.8c12-48.2-6.5-122.2-30.5-163.2c-10.7-18.3-24.2-28.6-37.3-38.5
		c-11.5-8.7-22.3-17-30.7-30.2c-5.9-9.3-4.9-20.2-3.8-31.7C637.6,1231.8,638.8,1219.5,631.6,1209.1z M636.7,1277.7
		c8.8,13.8,19.9,22.3,31.7,31.2c12.8,9.7,25.9,19.7,36.2,37.3c23.6,40.3,41.8,112.9,30.1,160.1c-31.5,126.1-105,174.8-182.9,226.3
		c-89.4,59.2-181.8,120.5-215.7,304.7c-8.2,44.5-21.7,68-39.2,68c-27.3,0-60.4-56.7-70.7-105.5c-17.9-84.6-12-185.4,17.6-299.6
		c19.6-75.8,75.7-131.1,129.9-184.5c28.2-27.8,57.4-56.5,80.9-87.7c5.7-7.6,14.8-17.7,25.3-29.5c34.5-38.7,81.8-91.7,73.6-123.4
		c-3-11.4-10-22.7-17.5-34.7c-7.7-12.3-15.6-25-18.4-37.4c-3.6-15.7,2-18.5,6.9-20.9c2.7-1.4,5.5-2.8,6.2-6.1
		c0.9-4.4-1.9-11.1-18.6-31c-9.5-11.3-36.4-25.7-62.3-39.7c-27.3-14.6-58.2-31.3-60.8-40.8c-5.9-21.7-4-30.3-1.4-33.6
		c1.4-1.8,3.4-2.7,6.1-2.7c26.2,0,102.4,74.7,164.9,144.6c0.8,0.9,1.2,1.3,1.2,1.3c11.7,8.9,22,11.1,31.1,13
		c12.9,2.7,24,5.1,37.3,24.3c6.4,9.1,5.3,20.2,4.2,31.8C631.1,1255,629.9,1267.1,636.7,1277.7z"/>
	<path class="st1" d="M0,819.6c202.3,114.5,420.4,296.7,460.1,387.2c23.8,54.4-34,119.4-107.1,201.6
		c-83.1,93.5-186.6,209.8-193.1,349.4C152.1,1928.1,67.7,1998,0,2019.1v4.4c69.3-21.1,156.1-91.9,164.1-265.4
		c6.4-138.1,109.3-253.9,192-346.8c74.2-83.4,132.8-149.2,107.8-206.1c-40-91.2-260.1-275-463.9-390V819.6z"/>
	<path class="st1" d="M1019.2,0.3c0.1-0.1,0.2-0.2,0.3-0.3h-2.5c-3.8,4-7.6,8.2-10.2,14.4c-7.5,17.5-5.3,35.8-3.3,53.4
		c1.1,9.8,2.3,20,1.8,30c-0.8,15.6-3.9,31.9-7,47.6c-2.5,13-5.2,26.4-6.4,39.4c-7.7,79.4-0.7,151.1,20.7,213.3
		c4.4,12.9,21.8,32.7,40.2,53.8c23.5,26.9,47.9,54.7,48.8,71.5c0.2,3.8-0.7,6.7-3,9.1c-6.4,6.7-23.4,8-50.7,3.7
		c-19.8-3.1-38.9-11.4-57.3-19.4c-10.8-4.7-21.9-9.5-33-13.2c-3.1-1.1-6.4-2.1-9.7-3.2c-39.9-13.2-94.5-31.2-102.4-62.8
		c-3.7-15.1,3.6-32.3,21.8-51.2c28.6-29.8,58.3-60.6,78.3-107.3c19.2-44.8,41.3-132,32.9-179.2c-1.7-9.7-5.8-16.2-9.7-22.5
		c-5.2-8.4-10.2-16.4-7.9-30.9c1.7-10.7,5.8-16.9,9.5-22.4c4.4-6.6,8.2-12.6,7.2-23.9h-1.8c1.1,10.8-2.5,16.3-6.9,22.9
		c-3.8,5.7-8,12.1-9.7,23.1c-2.4,15.1,2.7,23.4,8.2,32.1c3.8,6.2,7.8,12.5,9.4,21.9c8.4,46.8-13.6,133.6-32.7,178.1
		c-19.9,46.4-49.4,77.1-77.9,106.8c-18.6,19.4-26.1,37.1-22.2,52.8c8.1,32.5,63.2,50.8,103.5,64.1c3.3,1.1,6.6,2.2,9.7,3.2
		c11,3.7,22.1,8.5,32.8,13.2c18.5,8.1,37.7,16.4,57.7,19.6c10.7,1.7,20,2.6,27.5,2.6c12.4,0,20.4-2.2,24.7-6.8
		c2.5-2.7,3.7-6.2,3.4-10.4c-1-17.5-25.6-45.5-49.3-72.6c-18.3-20.9-35.6-40.6-39.9-53.2C993,335.5,986.1,264,993.8,184.9
		c1.3-13,3.9-26.3,6.4-39.2c3.1-15.8,6.3-32.1,7-47.8c0.5-10.1-0.7-20.3-1.9-30.3c-2.1-18.2-4.1-35.4,3.2-52.5
		C1011.2,8.8,1015.3,4.5,1019.2,0.3z"/>
	<path class="st1" d="M822.4,33.7c38,118.2,77.2,240.5-71.1,326.2c-22.2,12.8-47,22.2-73.9,27.9c-21.7,4.6-45.2,6.9-69.9,6.9
		C407.1,394.8,156.4,245.7,0,150.7v4.9C156.9,250.9,406.9,399,607.6,399c25,0,48.8-2.4,70.7-7c27.3-5.8,52.6-15.4,75.1-28.4
		c151.2-87.4,111.4-211.3,72.9-331.1c-3.5-10.9-7-21.7-10.3-32.5h-4.4C815.1,11.1,818.7,22.4,822.4,33.7z"/>
	<path class="st1" d="M575.2,2478.7c-21.8-20.2-54.5-21.9-83.3-23.4c-7.4-0.4-14.4-0.8-21.1-1.4c-80.6-7.7-149.8-26.4-217.8-58.9
		c-58.5-27.9-103.8-53.4-142.7-80.2c-10.6-7.3-21.5-11.1-32.3-11.1c-24.6,0-47.7,19.3-61.9,51.6c-5.4,12.2-10.6,24.2-16.1,36.1v4.3
		c6-13,11.8-26.2,17.7-39.7c13.9-31.6,36.4-50.5,60.3-50.5c10.4,0,21,3.6,31.3,10.7c38.9,26.8,84.3,52.4,142.9,80.4
		c68.2,32.6,137.6,51.3,218.4,59c6.8,0.6,13.8,1,21.2,1.4c28.5,1.5,60.8,3.2,82.2,22.9c24.8,22.9,21.3,66.4,18.2,104.8
		c-1.5,18.9-2.9,36.7-1.2,51.3c2.6,21.6,7.8,43.1,13.3,64h1.9c-5.5-21-10.8-42.5-13.4-64.2c-1.7-14.4-0.3-32.1,1.2-50.9
		C597.1,2546.1,600.6,2502.2,575.2,2478.7z"/>
	<path class="st1" d="M14.4,2582.8c-5.3-2.1-10.1-4.1-14.4-6.3v2c4.2,2.1,8.9,4,13.8,6c2.5,1,5.1,2.1,7.8,3.2
		c38.6,16.3,68.1,31.6,92.8,48.3c31,20.9,65.9,42.4,103.9,64.1h3.6c-39-22.2-74.8-44.2-106.5-65.6c-24.8-16.7-54.4-32.1-93.1-48.4
		C19.6,2584.9,17,2583.8,14.4,2582.8z"/>
	<path class="st1" d="M90.9,2670.7c14.3,9.6,29.5,19.4,45.3,29.3h3.4c-16.7-10.4-32.7-20.6-47.7-30.8c-21.2-14.3-56.8-32.6-91.9-47
		v1.9C34.7,2638.4,69.9,2656.6,90.9,2670.7z"/>
	<path class="st1" d="M56.1,1249.1c-3-19.3-16.3-36.6-40.8-52.9c-5-3.3-10.1-6.7-15.3-10.2v2.2c4.8,3.2,9.6,6.4,14.3,9.5
		c24.1,15.9,37.1,32.8,40,51.6c4.8,31.1-18.9,63.2-47.9,98.9c-2,2.4-4.1,5.4-6.4,8.6v3.1c2.8-4,5.4-7.7,7.8-10.6
		C37.1,1313.4,60.9,1280.9,56.1,1249.1z"/>
	<path class="st1" d="M45.1,2690L45.1,2690c-14.5-8.8-29.6-16.6-45.1-23.6v2c15.2,6.9,29.9,14.5,44.2,23.1c0.1,0.1,7.4,4.5,14,8.5
		h3.5C49.3,2692.5,46,2690.5,45.1,2690z"/>
	<path class="st1" d="M409.1,6c11.3,5.7,26.7,13.5,40.3,13.5c5.7,0,10.6-1.4,14.7-4.2c0.3-0.2,0.7-0.5,1-0.7
		c4.5-3.6,7.3-8.7,9.1-14.5H471c-1.6,5-4.1,9.2-7.8,12.2c-0.3,0.2-0.5,0.4-0.8,0.6c-3.5,2.4-7.9,3.7-13,3.7
		c-12.9,0-27.9-7.6-38.9-13.2c-1.7-0.8-3.2-1.6-4.6-2.3c0,0-0.8-0.4-1.9-0.9h-6.8l7.4,3.6C405.9,4.3,407.5,5.1,409.1,6z"/>
	<path class="st1" d="M437.4,2646c2.2-7.8,1.5-14.5-2.1-20.1c-8.8-13.6-32.6-17.1-49.9-19.6c-2.9-0.4-5.6-0.8-7.9-1.2
		c-0.8-0.1-2.1-0.4-3.9-0.8c-9.1-1.8-28-5.6-42.1-5.6c-8.5,0-13.9,1.4-16.5,4.2c-1.3,1.4-2,3.1-1.9,5.1
		c0.8,15.5,24.6,25.1,38.8,30.8c2.2,0.9,4.2,1.7,5.9,2.4c3.8,1.7,8.2,3.8,12.8,6.1c14.7,7.3,31.3,15.6,45.5,15.6
		c1.8,0,3.6-0.1,5.3-0.4C429.2,2661.1,434.6,2655.6,437.4,2646z M420.7,2659.1c-1.5,0.2-3,0.4-4.7,0.4c-13.4,0-29.6-8.1-43.9-15.2
		c-4.6-2.3-9-4.5-12.9-6.2c-1.7-0.7-3.7-1.5-6-2.4c-13.4-5.4-35.9-14.5-36.7-27.7c-0.1-1,0.2-1.9,0.9-2.6c1.3-1.4,4.8-3.1,14-3.1
		c13.8,0,32.5,3.8,41.4,5.6c1.8,0.4,3.1,0.6,3.9,0.8c2.4,0.4,5.1,0.8,8,1.2c15.8,2.3,39.6,5.8,47.5,18.1c3.1,4.7,3.6,10.4,1.7,17.2
		C431.7,2653.4,427.3,2657.9,420.7,2659.1z"/>
	<path class="st1" d="M554.3,2565.8c2.9-17.6,5.8-35.9-5.8-49.7c-13.9-16.5-36.6-17.7-56.6-18.7l-2.1-0.1
		c-7.1-0.4-15.2-0.8-22.9-1.5c-85.6-8.2-159.3-28.1-231.9-62.8c-22.9-10.9-45.3-23.4-67-35.4c-11.9-6.6-24.3-13.4-36.5-20l-0.8-0.4
		c-14.4-7.6-29.3-15.5-44.6-15.5c-8.1,0-15.4,2.2-22.3,6.7c-24.4,15.9-36.1,46.7-47.5,76.6c-5.1,13.5-10.1,26.4-16.1,37.6v3.8
		c6.7-12,12.1-25.9,17.7-40.7c11.2-29.6,22.8-60.1,46.8-75.7c6.6-4.3,13.6-6.4,21.3-6.4c14.9,0,29.6,7.8,43.8,15.3l0.8,0.4
		c12.3,6.5,24.6,13.3,36.5,19.9c21.7,12,44.2,24.5,67.1,35.5c72.8,34.8,146.7,54.8,232.6,62.9c7.8,0.7,15.9,1.2,23,1.5l2.1,0.1
		c19.7,1,41.9,2.2,55.3,18.1c11.1,13.2,8.2,31.1,5.4,48.3c-0.9,5.5-1.7,10.8-2.2,16c-1.6,20.1-3.3,40.9-1,59.6
		c2.5,20.4,6.8,40,11.6,58.9h1.9c-4.8-19-9.2-38.6-11.7-59.1c-2.2-18.6-0.6-39.3,1-59.3C552.5,2576.5,553.4,2571.3,554.3,2565.8z"/>
	<path class="st1" d="M109.1,1269.4c15.6-43.8-0.1-61.4-70.7-108.2c-5.6-3.7-11.2-7.4-17-11.3c-7.4-5-14.5-9.8-21.4-14.6v2.2
		c6.6,4.6,13.4,9.1,20.5,13.9c5.7,3.9,11.3,7.6,17,11.3c69.7,46.1,85.2,63.4,70,106.1c-13.7,38.6-40.3,71.3-68.5,106
		c-13.1,16.1-26.5,32.6-39,50.2v3.1c12.9-18.3,26.8-35.4,40.4-52.1C68.6,1341.1,95.3,1308.3,109.1,1269.4z"/>
	<path class="st1" d="M474.5,2542.2c-19-8.3-39.6-10.2-59.7-12.2c-11.4-1.1-23.2-2.2-34.4-4.5c-56.5-11.4-111.6-29.9-163.7-54.7
		c-24-11.5-47-24.2-69.3-36.6c-3.2-1.8-6.8-4.1-10.7-6.6c-12.9-8.2-28.9-18.4-43.2-18.4c-5.4,0-10.1,1.5-14.3,4.3
		c-10.9,7.7-16.1,23.1-20.6,36.7c-1.1,3.4-2.2,6.6-3.3,9.5c-1.9,5.1-5.8,12.2-10,19.7c-10,18.1-22.4,40.6-17.9,54.2
		c4.5,13.7,22.3,21.2,36.7,27.2c3.2,1.4,6.3,2.7,8.9,3.9c24.5,11.6,45.7,23.5,64.8,36.4c47.4,32,104.6,65.6,167.8,98.9h3.8
		c-64.4-33.8-122.5-68-170.6-100.4c-19.2-12.9-40.5-24.9-65-36.6c-2.7-1.3-5.7-2.6-9-3.9c-14-5.9-31.4-13.2-35.6-26.1
		c-4.2-12.8,8-35,17.8-52.8c4.3-7.9,8.1-14.6,10.1-19.9c1.1-3,2.2-6.2,3.3-9.6c4.5-13.3,9.5-28.4,20-35.8c3.8-2.7,8.3-4,13.2-4
		c13.8,0,29.6,10.1,42.2,18.1c3.9,2.5,7.6,4.9,10.9,6.7c22.3,12.3,45.3,25.1,69.4,36.6c52.2,24.9,107.4,43.4,164.1,54.9
		c11.4,2.3,23.2,3.4,34.6,4.5c19.9,1.9,40.4,3.9,59.1,12c33,14.4,32.9,42.6,32.7,72.5c0,9.9-0.1,20,1.1,29.8
		c2.3,19,5.9,36.7,10.1,53.9h1.8c-4.1-17.2-7.8-35.1-10.1-54.1c-1.2-9.7-1.1-19.8-1.1-29.6C508.5,2585.9,508.6,2557.1,474.5,2542.2z
		"/>
	<path class="st1" d="M394.1,2695.2c-88.9-43.5-169-88.8-231.5-130.9c-8.2-5.5-17.2-10.2-25.8-14.6c-11.9-6.2-24.3-12.5-34.8-21.4
		c-14.2-12.1-17.9-23.9-11.9-38.5c4.7-11.4,12.7-17,24.3-17c19.4,0,45.3,15.7,64.2,27.2c7.5,4.5,13.9,8.4,18.9,10.8
		c55.4,26.4,113.9,46,174,58.2c13.5,2.7,26.5,4,39,5.2c2.2,0.2,4.4,0.4,6.7,0.6c15.1,1.2,32.2,2.5,42.3,13.7
		c10.2,11.2,11.2,34,11.9,52.2c0.2,5.1,0.4,9.8,0.8,14l0.2,2.3c1.1,12,2.7,29.9-1.6,43h3.1c4.1-13.6,2.5-31.2,1.4-43.2l-0.2-2.3
		c-0.4-4.1-0.6-8.8-0.8-13.9c-0.8-18.8-1.8-42.1-12.7-54.1c-11-12.1-28.7-13.5-44.3-14.7c-2.3-0.2-4.5-0.4-6.7-0.6
		c-12.5-1.2-25.3-2.4-38.7-5.1c-59.8-12.1-118.1-31.6-173.3-58c-4.9-2.3-11.3-6.2-18.6-10.7c-19.2-11.7-45.5-27.7-65.7-27.7
		c-12.8,0-21.9,6.3-27.1,18.8c-6.5,15.7-2.5,29.1,12.7,41.9c10.7,9.1,23.2,15.5,35.3,21.8c8.6,4.4,17.4,9,25.5,14.4
		c62.6,42.2,142.8,87.5,231.8,131.1c1.7,0.8,3.1,1.5,4.3,2.1h6.8C400.6,2698.4,394.1,2695.2,394.1,2695.2z"/>
	<path class="st1" d="M582.4,1495.6l-0.4,0c-8.5,0-17.2,10.8-23.5,18.7c-1.4,1.7-2.6,3.2-3.6,4.4c-6,6.8-11.7,13.9-17.2,20.9
		c-3.6,4.5-7.2,8.9-10.8,13.3l-0.4,0.5c-12,14.2-16.9,23.5-15,28.3c0.5,1.3,1.8,3,5.1,3.4c0.5,0.1,1,0.1,1.4,0.1l0.3,0
		c24-0.5,43.5-22.3,52.9-35.2c9-12.3,15.4-25.6,17.7-36.5c0.5-2.5,2-11.1-1.4-15.5C586.2,1496.5,584.5,1495.7,582.4,1495.6z
		 M585.9,1513c-2.2,10.5-8.4,23.3-17.2,35.3c-9.1,12.5-27.8,33.5-50.6,33.9l-0.2,1.5v-1.5c-0.4,0-0.7,0-1.1-0.1
		c-2.2-0.3-2.5-1.2-2.6-1.5c-0.7-1.7-0.6-7.4,14.5-25.3l0.5-0.5c3.7-4.4,7.3-8.9,10.9-13.4c5.5-6.9,11.2-14,17.1-20.8
		c1.1-1.2,2.3-2.8,3.7-4.5c5.6-7,14-17.6,21.4-17.6h0c1.2,0,2.1,0.5,2.8,1.4C587.1,1502.6,586.8,1508.6,585.9,1513z"/>
	<path class="st1" d="M1215.4,2103.4c79.6-9.1,165-101.3,166.1-179.4c1.7-119.8-67.2-215.4-133.8-308c-11.3-15.7-23-32-34-47.9
		l-6.6-9.6c-31.3-45.1-66.9-96.3-78.4-151.6c-9.8-46.9-24.7-155.9-8.4-193.5c11.9-27.6,45.9-43.4,78.7-58.6
		c22.7-10.5,44.1-20.5,59.2-34.1l0.7-0.6c51.5-46.6,51.5-46.6,86.6-47.8c10.6-0.4,23.8-0.8,42.5-2.6c25-2.4,39.8-6,50.6-8.7
		c6.9-1.7,11.8-2.9,16.2-2.9c10.8,0,19.9,7.7,49.8,33c88.5,74.9,86.8,205.3,85.2,331.3c-2,158.6-4.1,322.6,175.4,374.5
		c25.8,7.5,50.9,11.2,74.7,11.2c67.5,0,124.9-30.2,166.2-87.2c60.5-83.7,76.5-214.3,40-325c-84.4-255.5-286.1-401.6-503.1-540.8
		c-197.2-126.5-385-161.4-545.6-184.1c-11.6-1.6-22.7-2.5-32.9-2.5c-65.1,0-96.1,33.1-135.3,75c-15,16.1-30.5,32.7-49.8,49.6
		c-22.1,19.4-50.1,32.7-77.3,45.5c-44.3,20.9-86.1,40.7-103.4,84.7c-36.7,93.3,53.4,166,132.9,230.1c36.8,29.7,71.5,57.7,91.9,85.8
		c80.7,111.1,56.6,298.5-16.6,403.8c-22.8,32.9-66.6,73.5-113,116.6c-76.8,71.3-163.8,152.1-179.2,220c-7.2,31.9-5.3,54.2,5.8,68.1
		c9.3,11.6,24.9,17.3,47.9,17.3c37.7,0,91.7-15.6,148.9-32c69.9-20.1,149.1-42.9,216.7-42.9c32.2,0,58.9,5,81.5,15.3
		c26,11.9,48.1,29,69.4,45.6c35.2,27.4,68.4,53.2,115.5,53.2C1205.2,2104.3,1210.3,2104,1215.4,2103.4z M1016.6,2002.7
		c-23-10.5-50.1-15.6-82.8-15.6c-68,0-147.5,22.9-217.6,43c-57,16.4-110.8,31.9-148.1,31.9c-21.9,0-36.8-5.3-45.5-16.1
		c-10.5-13.2-12.2-34.6-5.2-65.6c15.2-67,101.9-147.4,178.3-218.4c46.5-43.1,90.4-83.9,113.4-117c73.8-106.1,98.1-295.1,16.6-407.3
		c-20.6-28.3-55.5-56.5-92.4-86.3c-78.7-63.5-167.8-135.5-132-226.7c16.8-42.9,58.1-62.4,101.9-83.1c27.3-12.9,55.6-26.3,78-46
		c19.4-17,35-33.7,50-49.8c38.7-41.4,69.3-74.1,133.1-74.1c10.1,0,21,0.8,32.4,2.5c160.3,22.7,347.7,57.5,544.4,183.7
		c216.5,138.9,417.8,284.6,501.9,539.2c36.3,109.8,20.4,239.3-39.6,322.3c-40.6,56.2-97.2,85.9-163.7,85.9
		c-23.5,0-48.3-3.7-73.9-11.1c-79.5-23-129.8-70.3-153.8-144.4c-21.5-66.4-20.4-148.1-19.4-227.2c1.6-126.7,3.3-257.8-86.3-333.6
		c-42.8-36.3-44-36.8-68.7-30.7c-10.7,2.6-25.4,6.2-50.1,8.6c-18.6,1.7-31.7,2.2-42.3,2.6c-36.2,1.2-36.2,1.2-88.5,48.6l-0.7,0.6
		c-14.7,13.3-35.9,23.2-58.4,33.6c-33.4,15.5-67.8,31.5-80.2,60.2c-16.6,38.3-1.6,148.2,8.3,195.3c11.7,55.9,47.4,107.3,78.9,152.7
		l6.6,9.6c11.1,16,22.8,32.2,34.1,48c66.3,92.1,134.9,187.4,133.2,306.2c-1.1,76.8-85.1,167.5-163.4,176.4c-5,0.6-10,0.9-14.8,0.9
		c-46,0-78.9-25.5-113.6-52.6C1065.2,2032,1043,2014.7,1016.6,2002.7z"/>
	<path class="st1" d="M2700,12.9c-9-4.6-18.2-8.9-27.6-12.9h-4.9c11.1,4.5,21.9,9.4,32.4,14.9V12.9z"/>
	<path class="st1" d="M2618.3,1179.5c-3-2.2-7.7-6.3-13.7-11.5c-22.8-19.9-61-53.2-88-53.2c-10.5,0-18.4,5.1-23.4,15.2
		c-6.3,12.6,7.5,41.9,16.6,61.3c2.2,4.7,4.1,8.8,5.3,11.8c2.5,6,4.7,11.6,6.6,16.6c12.7,33.3,25.9,67.8,35.7,105.2
		c1,3.9,2,8.3,3.1,13c4.5,20,10,44.8,23.8,56.9c5.4,4.7,10.6,7.9,15.5,9.3c2.3,0.7,4.5,1,6.7,1c16.3,0,27.5-18.5,38.4-36.5
		c2.5-4.1,5-8.3,7.6-12.2l2.4-3.7c41.3-63,66.3-101-9.7-153.7C2637.9,1193.8,2628.4,1186.8,2618.3,1179.5z M2652.5,1351l-2.4,3.7
		c-2.6,3.9-5.2,8.2-7.6,12.3c-10.4,17.2-21.2,35-35.8,35c-1.9,0-3.9-0.3-5.8-0.9c-4.5-1.3-9.3-4.3-14.4-8.7
		c-13.1-11.5-18.5-35.8-22.9-55.4c-1.1-4.7-2.1-9.2-3.1-13.1c-9.8-37.6-23-72.1-35.8-105.5c-1.9-5-4.2-10.6-6.6-16.6
		c-1.2-3-3.2-7.1-5.4-11.9c-8.3-17.7-22.2-47.3-16.6-58.6c4.5-9.1,11.3-13.5,20.7-13.5c25.8,0,63.5,32.9,86,52.5
		c6,5.2,10.8,9.4,13.9,11.7c10,7.3,19.6,14.3,27.1,19.5C2717.2,1252.5,2692.9,1289.6,2652.5,1351z"/>
	<path class="st1" d="M2667.5,1112.1c-13.2-9.7-26.4-20.4-40.4-31.9c-42.8-34.9-91.2-74.5-134.8-74.5c-8.6,0-16.7,1.5-24.9,4.6
		c-76.9,29.1-65.9,110.4-52.5,156.3c8.2,28,18.8,55.8,29.1,82.6c12,31.3,24.3,63.6,32.9,96.5c5.2,19.9,7.8,40.8,10.3,61
		c7.7,62.1,15,120.7,97.8,120.7c6.6,0,13.6-0.4,21-1.1c9.4-0.9,17.2-2.4,23.8-4.5c22-7.1,28.6-20.4,38.6-40.7
		c3-6.1,6.4-13,10.7-20.5c6.5-11.4,13.6-22.3,20.9-32.8v-3.1c-7.9,11.1-15.5,22.7-22.5,35c-4.3,7.5-7.7,14.5-10.7,20.6
		c-9.8,19.8-16.2,32.9-37.5,39.7c-6.5,2.1-14.1,3.5-23.4,4.4c-7.3,0.7-14.3,1.1-20.8,1.1c-81.2,0-88.1-55.2-96.1-119.1
		c-2.5-20.3-5.2-41.3-10.4-61.3c-8.6-33-21-65.4-33-96.7c-10.2-26.8-20.8-54.5-29-82.5c-13.2-45.3-24.2-125.6,51.4-154.1
		c8-3,15.9-4.5,24.3-4.5c42.9,0,91.1,39.4,133.6,74.1c14,11.4,27.2,22.3,40.5,31.9c10,7.3,18.8,13.7,25.4,18.3
		c2.7,1.9,5.4,3.7,8.1,5.6v-2.2c-2.4-1.6-4.8-3.2-7.1-4.9C2686.3,1125.9,2677.5,1119.4,2667.5,1112.1z"/>
	<path class="st1" d="M2620.1,2452.5c-26.4,41.1-57.6,80.5-81.8,110.3c-1.3,1.6-2.8,3.3-4.3,5.1c-10.8,12.7-24.2,28.4-14.7,44.3
		c9.2,15.3,35.4,18.4,54.6,20.7c3.4,0.4,6.7,0.8,9.4,1.2c41.2,6.2,80.3,17.8,116.7,34.3v-2c-36.4-16.4-75.3-27.9-116.4-34.2
		c-2.8-0.4-6-0.8-9.5-1.2c-18.8-2.2-44.5-5.2-53.2-19.8c-8.8-14.7,4.1-29.9,14.5-42.2c1.5-1.8,3-3.5,4.3-5.1
		c24.3-29.8,55.5-69.3,81.9-110.5c23.5-36.5,40-74.3,57.6-114.3c5.9-13.5,13-25.6,20.8-36.2v-3c-8.4,11.1-16.1,24.1-22.4,38.5
		C2660.1,2378.4,2643.5,2416.1,2620.1,2452.5z"/>
	<path class="st1" d="M1978.2,31.6c9.4,31.7,76.4,49.2,119.1,49.2c61,0,124.9-12,192.5-24.7c68.3-12.8,139-26.1,207.7-26.1
		c75.3,0,138.6,16.1,193.4,49.3c2.9,1.8,6,3.7,9,5.5v-3.5c-2.5-1.5-5.1-3.1-7.5-4.5c-55.3-33.5-119.1-49.7-195-49.7
		c-69,0-139.8,13.3-208.3,26.2c-67.5,12.7-131.3,24.7-192,24.7c-42.7,0-107.6-17.9-116.2-47c-2.9-9.8,0.6-20.1,10.4-30.8h-3.9
		C1978.3,10.9,1975.2,21.4,1978.2,31.6z"/>
	<path class="st1" d="M2484.3,239.6c-7.9,0-15.6-0.1-23.1-0.1c-7.3-0.1-14.4-0.1-21.4-0.1c-40.9,0-73.5,2.2-109.4,13.1
		c-18.8,5.7-36.4,14.7-53.4,23.3c-28.4,14.5-55.2,28.1-87.3,28.1c-5.3,0-10.7-0.4-16-1.2c-23.7-3.4-41.4-17.4-58.6-30.9
		c-19.3-15.2-37.5-29.5-63-29.5c-2.3,0-4.7,0.1-7.1,0.4c-15.8,1.6-41,15.8-65.4,29.5c-15.7,8.8-30.5,17.2-41,21
		c-15.3,5.6-26.7,8.4-35.1,10.4c-25.2,6-28.4,8.2-40.7,54.7c-3.4,12.8-5.8,24.8-8.2,36.4c-8.8,43.1-15.8,77.1-61.7,109.6
		c-31,21.9-70.3,32.5-120.2,32.5c-49.4,0-101.1-10.3-146.7-19.5c-23.8-4.8-46.4-9.3-63.1-11.1c-9.7-1-24.7-1.7-40.1-1.7
		c-44,0-95.6,16.1-99.2,39.3c-1.7,11,6.8,27.4,57.3,43.5l5.6,1.8c192.4,61.7,326.6,142.3,463.2,278c37.7,37.4,66.5,54.9,90.6,54.9
		c5.7,0,11.2-1,16.5-3c25.6-9.6,44.3-41.9,65.9-79.3c11.2-19.3,23.8-41.2,38.8-62.3c72.5-102.1,176.5-176.8,292.8-210.1
		c34.3-9.8,67.8-14.8,99.6-14.8c103.6,0,176.8,50.7,246,102.9v-3.8c-69.1-52-142.3-102.2-246-102.2c-32,0-65.8,5-100.4,15
		C2236.6,598,2132,673,2059.1,775.7c-15,21.2-27.7,43.2-38.9,62.6c-21.3,36.9-39.8,68.8-64.4,78c-4.9,1.8-10.1,2.8-15.4,2.8
		c-23.3,0-51.4-17.2-88.4-54c-136.9-136.1-271.5-216.9-464.4-278.7l-5.6-1.8c-37.8-12.1-57.4-26.4-55.3-40.2
		c3-19.2,48.9-36.7,96.3-36.7c15.3,0,30.1,0.6,39.8,1.6c16.6,1.8,39,6.3,62.8,11c45.7,9.2,97.6,19.5,147.3,19.5
		c50.5,0,90.4-10.8,121.9-33.1c46.9-33.2,53.9-67.7,62.9-111.4c2.4-11.6,4.8-23.5,8.2-36.3c12.2-46.3,14.7-46.8,38.4-52.5
		c8.4-2,20-4.8,35.4-10.5c10.7-4,25.7-12.3,41.5-21.2c23-12.9,49.1-27.6,64.2-29.1c2.3-0.2,4.5-0.3,6.8-0.3
		c24.5,0,42.3,14,61.2,28.9c17.5,13.7,35.5,28,60,31.5c5.5,0.8,11,1.2,16.5,1.2c32.8,0,61.2-14.5,88.7-28.4
		c16.9-8.6,34.4-17.5,52.9-23.1c35.6-10.8,67.9-13,108.5-13c7,0,14.1,0.1,21.4,0.1c7.5,0.1,15.2,0.1,23.1,0.1
		c36.7,0,69.4,4.3,100.3,13.1c38.9,11.1,77.1,26.7,115.4,44.8v-3.3c-38-17.9-75.9-33.3-114.6-44.3
		C2554.3,243.9,2521.2,239.6,2484.3,239.6z"/>
	<path class="st1" d="M2635,2501.6c-19.4,23.3-41.4,49.8-40.4,75.1c0.8,19.5,19.7,22.8,36.3,25.7c4,0.7,7.8,1.4,11.4,2.2
		c17.1,4.1,37.3,11.2,57.7,19.6v-1.9c-20.3-8.3-40.3-15.3-57.3-19.4c-3.6-0.9-7.4-1.5-11.5-2.2c-16.8-2.9-34.1-5.9-34.9-24
		c-1-24.6,20.8-50.8,40-73.9c7.9-9.5,15.4-18.5,20.6-26.6c17.1-26.6,30.5-53.2,43-80.5v-4.3c-13,28.5-26.7,56.1-44.5,83.8
		C2650.3,2483.2,2642.9,2492.1,2635,2501.6z"/>
	<path class="st1" d="M2669,1164.9c-7-4.8-16.4-11.7-26.2-18.9c-14.1-10.3-27.7-21.4-42.2-33.3c-3.3-2.7-6.8-5.7-10.6-8.9
		c-24.2-20.5-57.3-48.6-87.8-48.6c-8.4,0-16.2,2.2-23.2,6.5c-52.7,32.6-21,110.3-2.1,156.8c2.3,5.7,4.5,11,6.3,15.7
		c12.4,32.3,25.1,65.7,34.3,100.9c1.7,6.6,3.5,14.4,5.3,22.6c8.4,37.7,19.9,89.3,48.8,107.9c4.8,3.1,9.8,5,14.9,5.7
		c1.5,0.2,3.1,0.3,4.7,0.3c35.3,0,70.5-53.6,96.2-92.7c4.7-7.1,8.9-13.5,12.8-19.1v-3.1c-4.3,6-9,13.2-14.3,21.2
		c-25.5,38.8-60.3,91.9-94.7,91.9c-1.5,0-3-0.1-4.4-0.3c-4.9-0.7-9.6-2.5-14.2-5.4c-28.2-18.2-39.6-69.4-48-106.8
		c-1.8-8.2-3.6-16-5.3-22.7c-9.2-35.3-22-68.8-34.4-101.1c-1.8-4.7-4-10.1-6.3-15.7c-18.7-45.9-50-122.8,1.4-154.6
		c6.7-4.1,14.2-6.2,22.2-6.2c29.8,0,62.6,27.8,86.6,48.2c3.8,3.2,7.4,6.2,10.7,9c14.4,11.8,28.1,22.9,42.2,33.3
		c9.8,7.2,19.3,14.1,26.2,18.9c9.4,6.5,18.8,12.9,28.9,19.7c1.1,0.7,2.1,1.4,3.1,2.1v-2.2c-0.7-0.5-1.5-1-2.2-1.5
		C2687.8,1177.8,2678.3,1171.4,2669,1164.9z"/>
	<path class="st1" d="M2357.1,1590.7c3.4,4.4,9.8,10.5,25.8,11.8c60,4.9,150.6,12.3,227.1,82l0.9,0.8c26.2,23.9,47.4,54.1,63.1,89.9
		c4.4,9.9,11.4,15.5,19.4,15.5c2.2,0,4.4-0.4,6.6-1.3v-2.1c-2.2,1-4.4,1.7-6.6,1.7c-7.2,0-13.7-5.3-17.7-14.5
		c-15.9-36-37.2-66.4-63.6-90.5l-0.9-0.8c-77-70.1-168-77.6-228.2-82.5c-15.3-1.3-21.3-6.9-24.5-11.1c-7.6-10-8.6-25.4-7.7-30.1
		c8.3-36.7,18.7-82.4,14.8-132.4c-6.6-84.7-40.4-157.4-73.2-227.8c-26.3-56.5-56.1-120.5-45.7-149.6c18.4-51.9,93.6-126.4,125.1-156
		c20-18.8,43.8-28.3,70.7-28.3c15.4,0,28.6,3.2,37.1,5.9c55.2,17.8,133.3,58.6,220.4,114.5v-2.1c-86.8-55.7-164.8-96.4-219.9-114.1
		c-8.5-2.8-22-6-37.6-6c-27.4,0-51.5,9.7-71.9,28.8C2339,922,2263.6,996.7,2245,1049c-10.6,29.9,19.4,94.2,45.8,151
		c32.7,70.2,66.4,142.8,73,227.2c3.9,49.7-6.5,95.3-14.8,132C2348.1,1564.2,2349.1,1580.3,2357.1,1590.7z"/>
	<path class="st1" d="M2694.7,2491.8c-9.7,15.8-20.6,33.8-18,53.3c2.6,19.2,11.4,27.4,23.3,33.4v-2c-11.3-5.8-19.1-13.7-21.5-31.7
		c-2.5-18.9,8.2-36.5,17.7-52.1l1.8-2.9c0.7-1.2,1.3-2.4,2-3.7v-3.8c-1.2,2.2-2.3,4.4-3.5,6.5L2694.7,2491.8z"/>
	<path class="st1" d="M1912.8,93.1c51.8,32.5,112.1,48.3,184.5,48.3c66.6,0,136.3-13.1,203.7-25.8c65.6-12.3,133.5-25.1,196.5-25.1
		c64,0,117,13.3,162,40.6c7.9,4.8,16.1,9.8,24.8,15c5.1,3.1,10.3,6.3,15.7,9.5v-4.9c-4.6-2.8-9.1-5.5-13.5-8.2
		c-8.6-5.2-16.9-10.3-24.8-15c-45.8-27.7-99.5-41.2-164.2-41.2c-63.5,0-131.5,12.8-197.3,25.2c-67.2,12.6-136.8,25.7-203,25.7
		c-71.6,0-131.2-15.6-182.3-47.7c-34.3-21.6-50.9-44.2-49.2-67.3c0.5-7.4,2.9-14.8,7.1-22.2h-4.7c-3.8,7.3-6.1,14.6-6.6,21.9
		C1859.8,46.7,1877,70.6,1912.8,93.1z"/>
	<path class="st1" d="M2470,1536.4c13.7,7.5,32.4,10.7,50.5,13.8c13.4,2.3,27.3,4.6,38.6,8.7c7.1,2.6,15,6.5,23.4,10.6
		c17.2,8.5,36.7,18.1,54.5,18.1c3.4,0,6.7-0.4,9.8-1.1c0.8-0.2,1.6-0.4,2.4-0.6c25.4-7.6,39-39.5,50.7-68.8v-4.9
		c-0.1,0.2-0.1,0.3-0.2,0.5c-11.9,29.9-25.3,63.7-51,71.4c-0.8,0.2-1.5,0.4-2.3,0.6c-3,0.7-6.1,1-9.4,1c-17.3,0-36.7-9.5-53.7-17.9
		c-8.4-4.1-16.3-8-23.5-10.6c-11.5-4.1-25.4-6.5-38.9-8.8c-18-3.1-36.6-6.2-50-13.6c-29.6-16.2-26.5-46-23.3-77.5
		c1.3-12.3,2.6-25.1,1.7-36.7c-7.8-99.8-44.8-179.6-80.7-256.6c-16.3-35-17.5-73.4-3.4-108c15.3-37.5,47.3-67.8,87.9-83.1
		c12.6-4.8,25.8-7.2,39.2-7.2c57.9,0,112.2,44.4,160.2,83.6c13.6,11.1,26.4,21.6,38.7,30.5c3.2,2.3,6.1,4.4,8.8,6.4v-2.2
		c-2.4-1.8-5-3.6-7.7-5.6c-12.3-9-25.1-19.4-38.6-30.5c-48.2-39.4-102.8-84-161.3-84c-13.6,0-26.9,2.5-39.8,7.3
		c-41,15.5-73.4,46.2-88.9,84.1c-14.3,35.1-13.1,74,3.4,109.5c35.8,77,72.8,156.5,80.5,256c0.9,11.5-0.4,24.2-1.7,36.4
		C2442.7,1487.8,2439.4,1519.5,2470,1536.4z"/>
	<path class="st1" d="M2484.3,300.2c-50.5,0-104.1,9.1-161,18.9c-64,10.9-130.2,22.2-200.8,22.2c-5.1,0-10.1-0.1-15-0.2
		c-24.5-0.6-45.2-4.6-63.6-8.2c-15.8-3.1-29.5-5.7-42.6-5.7c-31.2,0-54.1,16.4-79.1,56.7c-12.1,19.4-20.9,42.6-29.4,65
		c-15.1,39.7-30.6,80.7-65,105c-11.8,8.4-34.5,14.8-58.5,21.7c-41.9,12-89.5,25.5-95.9,53.9c-8.1,35.5,64.9,84.1,104.1,110.2
		c7.3,4.9,13.6,9.1,17.7,12.1c45.9,33.7,83.9,56.2,120.1,56.2c4.9,0,9.9-0.4,14.6-1.3c28.8-5.2,55-25.5,82.3-64.1
		c80.4-113.3,196-196.2,325.5-233.3c39.8-11.4,78.9-17.2,116.3-17.2c103.5,0,180.1,41.8,246,88.4V578c-65.9-46.4-142.5-88-246-88
		c-37.6,0-76.9,5.8-116.8,17.3c-129.9,37.3-245.9,120.4-326.5,234c-27.1,38.2-52.9,58.3-81.2,63.4c-4.7,0.8-9.5,1.3-14.3,1.3
		c-35.6,0-73.3-22.3-119-55.8c-4.2-3.1-10.5-7.3-17.8-12.1c-38.8-25.9-111.1-74-103.3-108.3c6.2-27.3,53.2-40.7,94.7-52.5
		c24.2-6.9,47-13.4,59.1-22c34.9-24.6,50.5-65.9,65.7-105.8c8.5-22.3,17.3-45.4,29.2-64.7c24.7-39.6,47.1-55.8,77.6-55.8
		c13,0,26.5,2.6,42.3,5.7c18.4,3.6,39.2,7.6,63.9,8.2c4.9,0.1,9.9,0.2,15,0.2c70.7,0,137-11.3,201.2-22.3
		c56.7-9.7,110.3-18.8,160.6-18.8c31.1,0,58.5,3.5,84,10.8c43.6,12.4,87.2,31.5,131.8,53.7v-2c-44.3-22.1-87.8-41-131.3-53.4
		C2543.1,303.8,2515.5,300.2,2484.3,300.2z"/>
	<path class="st1" d="M2431.2,1568.7c12.3,3.1,24.3,5.9,35.9,8.5c62.7,14.5,116.9,27.1,171.1,76.2l1.1,1
		c12.5,11.3,22.3,16.8,30.1,16.8c1.2,0,2.4-0.1,3.5-0.4c11.8-2.7,17.6-19.1,24.1-40.3c1-3.3,2.1-6.5,3.1-9.8v-5.9
		c-1.7,5-3.3,10.1-4.9,15.2c-6.3,20.6-11.9,36.6-22.8,39.1c-7.8,1.8-18.1-3.4-32-15.9l-1.1-1c-54.5-49.4-108.9-62-171.9-76.6
		c-11.6-2.7-23.6-5.5-35.8-8.5c-44-11-36.6-52.4-29.4-92.4c3.1-17.5,6.4-35.6,5.2-50.7c-7.2-92.2-42.6-168.5-76.9-242.2
		c-4.1-8.8-8.5-17.4-12.7-25.8c-22-43.2-41.1-80.6-13.9-126.6c20.5-34.6,51.2-62.9,80.8-90.2c5.3-4.9,10.7-9.8,15.9-14.8
		c11.5-10.7,27-16.2,46.3-16.2c73.9,0,187.6,78.7,253,126.1v-2.2c-65.7-47.6-179-125.6-253-125.6c-19.8,0-35.8,5.6-47.6,16.7
		c-5.2,4.9-10.5,9.8-15.9,14.8c-29.8,27.5-60.5,55.8-81.2,90.7c-27.7,46.8-7.5,86.4,13.8,128.3c4.2,8.3,8.6,16.9,12.7,25.7
		c34.2,73.6,69.6,149.7,76.8,241.6c1.2,14.9-2.1,32.9-5.2,50.2C2393.1,1515,2385.5,1557.2,2431.2,1568.7z"/>
	<path class="st1" d="M1168.5,2432.8c-15.2,22.9-34.1,51.4-27.5,71.1c2.7,8,9.4,14,19.9,17.8c2,0.7,4.2,1.1,6.5,1.1
		c23.2,0,59.9-35.8,92.3-67.4c20.6-20.1,40.1-39.1,51.8-44.4c55.9-25.4,133.1-37.4,201.1-48.1c26.9-4.2,52.2-8.2,75.7-12.8
		c53.4-10.5,105-15.8,153.2-15.8c158,0,290.7,56.9,394.4,169c11.6,12.6,28.5,18.9,50.3,18.9c67.7,0,183.8-65.9,265.5-188
		c48.9-73,119.9-222.3,46.1-401.7c-29.6-71.9-73.6-105.4-138.4-105.4c-49.3,0-105.6,18.1-170.8,39.1
		c-80.2,25.8-171.1,55.1-268.8,55.1c-76.1,0-146-17.6-213.7-53.7c-208.8-111.3-214.9-314.5-196.8-479c7-64-4.4-114.6-32.9-146.4
		c-20.1-22.5-47.6-34.4-79.4-34.4c-60.2,0-135.4,46.8-162.5,136.1c-25.5,84.1,35,160.6,105,249.2c79,99.8,168.5,213,151.2,364
		c-8.6,74.9-36,146.7-73.1,192.2c-28.2,34.5-53.1,37.6-79.5,40.8c-20.1,2.5-41,5-65.4,20.5c-18.6,11.8-24.5,32-30.7,53.3
		c-4.3,14.7-8.7,29.9-17.7,42.3c-4.9,6.8-13.5,8.3-22.5,9.9c-11.9,2.1-25.5,4.4-32.7,19.9c-5,10.8,1.6,23.4,8,35.6
		c5.3,10.2,10.8,20.7,9.2,29.5C1184.6,2408.4,1177.2,2419.7,1168.5,2432.8z M1179.8,2370.3c-6.3-12-12.2-23.4-7.9-32.6
		c6.4-13.8,18.5-15.9,30.1-17.9c9.3-1.6,19-3.3,24.7-11.3c9.3-12.9,13.8-28.4,18.2-43.4c6-20.7,11.7-40.2,29.2-51.3
		c23.8-15.1,44.2-17.6,64-20c27.1-3.3,52.7-6.5,81.8-42c37.6-46,65.2-118.5,73.9-194c17.5-152.4-72.5-266.2-151.9-366.6
		c-69.4-87.8-129.4-163.6-104.4-246c26.6-87.8,100.3-133.7,159.2-133.7c30.8,0,57.4,11.5,76.8,33.2c27.8,31.1,38.9,80.8,32,143.8
		c-18.1,165.6-12,370.1,198.7,482.4c68.2,36.4,138.7,54.1,215.4,54.1c98.3,0,189.5-29.4,269.9-55.3c64.9-20.9,120.9-39,169.7-39
		c64.1,0,105.8,31.8,135.2,103.2c73.2,177.9,2.8,326-45.8,398.5c-78.2,116.7-194.9,186.5-262.7,186.5c-20.7,0-36.8-6-47.7-17.8
		c-104.4-112.9-237.9-170.1-396.9-170.1c-48.5,0-100.3,5.3-153.9,15.8c-23.3,4.6-48.7,8.5-75.5,12.7c-68.3,10.7-145.6,22.8-202,48.4
		c-12.3,5.6-31,23.9-52.8,45.1c-31.9,31.1-68.1,66.4-89.9,66.4c-1.9,0-3.7-0.3-5.3-0.9c-9.6-3.5-15.4-8.6-17.8-15.7
		c-6-18.1,12.4-45.8,27.1-68.1c8.9-13.4,16.5-24.9,17.9-32.6C1191.2,2392.1,1185.4,2381,1179.8,2370.3z"/>
	<path class="st1" d="M796,2442.7c27.1-24.5,69.9-45.9,119.5-70.8c34.6-17.3,81.2-59.9,78.4-94.8c-1.5-19-16.8-33.3-45.5-42.3
		c-11.3-3.6-23.6-5.3-37.7-5.3c-36.7,0-78.1,12.2-114.6,23c-16.7,4.9-32.4,9.6-46.8,12.8c-120.7,27.4-193.6,44-258.9,44
		c-57.8,0-108.5-13-175-44.7c-64-30.6-110.3-59.3-147.6-82.3c-54.8-34-80.4-49-112.8-49c-15.1,0-33.2,3.4-54.9,10.3v3.1
		c21.7-7,39.8-10.4,54.9-10.4c31.6,0,56.9,14.9,111.3,48.5c37.3,23.1,83.7,51.8,147.8,82.5c66.9,32,118,45,176.3,45
		c65.6,0,138.7-16.6,259.6-44c14.5-3.3,30.3-7.9,47-12.9c36.3-10.7,77.4-22.8,113.7-22.8c13.8,0,25.9,1.7,36.8,5.1
		c27.4,8.6,42,22,43.4,39.7c2.7,33.5-42.8,74.9-76.7,91.9c-49.8,24.9-92.8,46.5-120.2,71.2c-82.5,74.6-69.2,172.1-44.2,259.6h3.1
		C728,2613.1,714.5,2516.4,796,2442.7z"/>
	<path class="st1" d="M2618.7,2023.3c7.7,4.9,20.2,7.6,35.2,7.6c13.4,0,29.2-2.2,46.1-7.4v-4.4c-16.9,5.3-32.7,7.6-46.1,7.6
		c-14,0-26-2.5-33-7c-35.2-22.5-50.8-62.3-67.3-104.3c-14.2-36.3-29-73.9-57.5-100.3l-0.1-1.2l-1.2,0c-32.9-29-77.1-43.1-135.3-43.1
		c-56.7,0-116.4,13.6-164.4,24.6c-32.8,7.5-61.1,13.9-79.3,13.9c-10.7,0-17.2-2.2-19.9-6.7c-3.6-6-0.9-17.3,8-33.6
		c41.5-75.7,125.2-256.2,119.4-330.9c-4.6-58.9-32.9-119.8-60.3-178.7c-39.7-85.2-80.7-173.4-50.8-257.6
		c34.1-96.1,184.1-267.8,290.9-282.3c6.2-0.8,12.9-1.3,20-1.3c69.5,0,171.1,41.4,277,101.3v-4.5c-105.9-59.8-207.5-101-277-101
		c-7.2,0-14.1,0.4-20.5,1.3c-108.1,14.7-259.9,188.1-294.3,285.1c-30.4,85.8,11,174.7,51,260.7c27.2,58.5,55.4,119,59.9,177.2
		c5.2,66.6-67.9,235.4-118.9,328.5c-9.9,18.1-12.5,30.1-7.9,37.7c3.5,5.9,11.2,8.8,23.5,8.8c18.7,0,47.2-6.5,80.2-14
		c47.8-10.9,107.2-24.5,163.5-24.5c57.5,0,101.1,13.9,133.2,42.6l0,0c28.3,25.8,42.9,63.2,57.1,99.4
		C2566.4,1959.7,2582.3,2000,2618.7,2023.3z"/>
	<path class="st1" d="M2583.6,2297.2c-15.9,36.1-30.8,70.3-49.8,99.8c-110.6,172-233.9,201-364.4,231.7c-9.9,2.3-20.4,4.6-30.5,6.7
		c-43.5,9.3-88.4,18.8-125.1,42.6c-11.5,7.4-20.2,14.8-26.3,22h3.9c5.8-6.4,13.8-12.9,24-19.5c36.2-23.5,80.9-33,124.1-42.2
		c10.1-2.2,20.6-4.4,30.5-6.7c131.1-30.8,255-59.9,366.2-233c19.1-29.7,34.1-64,50.1-100.3c25.3-57.6,53.9-122.8,93.5-144.7
		c7-2.7,13.7-5,20.1-7v-3.1c-6.8,2.2-13.8,4.6-21.3,7.5C2638,2173.3,2609.1,2239.1,2583.6,2297.2z"/>
	<path class="st1" d="M1959.9,2634.9c70.7-31.5,134.7-46.6,196.6-61.1c124.3-29.2,231.6-54.5,329.9-207.3
		c16.6-25.7,30.7-57.9,45.6-92c31.2-71.1,63.5-144.7,123.4-175.1c16.1-6.3,30.9-11.1,44.6-14.7v-4.3c-14.3,3.7-29.6,8.7-46.5,15.3
		c-61.2,31-93.8,105.3-125.3,177.1c-14.9,33.9-28.9,65.9-45.3,91.4c-97.4,151.4-203.9,176.4-327.3,205.5
		c-62.1,14.6-126.3,29.7-197.4,61.4c-46.3,20.6-77.2,44.5-90,68.9h4.7C1885.8,2677.1,1915.6,2654.6,1959.9,2634.9z"/>
	<path class="st1" d="M1973.7,2491.4c-11.1-35.2-59.8-61.4-144.7-78.1c-55.9-10.9-113-16.5-169.8-16.5
		c-83.4,0-167.9,11.9-251.1,35.5c-11.3,3.2-22.6,6.7-33.6,10.3c-143.6,47.7-226.4,127.1-263.6,257.4h4.4
		c37-128.2,119-206.4,260.6-253.4c11-3.6,22.2-7.1,33.4-10.3c82.8-23.4,166.9-35.3,250-35.3c56.5,0,113.4,5.5,169,16.4
		c83.3,16.3,130.9,41.6,141.5,75.2c8.1,25.7-5.3,57.1-40.1,93.4c-35.9,37.4-72.2,75.3-104.9,114h5.5c32-37.7,67.3-74.6,102.4-111.1
		C1968.6,2551.5,1982.4,2518.7,1973.7,2491.4z"/>
	<path class="st1" d="M1640.9,2157.6c2.5,1.4,5.1,2.1,7.8,2.1c10.7,0,21.1-10.4,30.4-19.6c5.4-5.3,10.4-10.4,14.6-12.3
		c5.4-2.6,10.5-3.8,15.4-3.8c9.5,0,17.6,4.6,27,9.8c3.4,1.9,6.8,3.8,10.5,5.7c9,4.4,17.7,6.6,26.8,6.6c9.1,0,17.5-2.1,26.5-4.3
		c9.3-2.3,18.9-4.6,30.1-4.9l1.4,0c22.8,0,43.7,11.8,63.9,23.2c20.1,11.4,40.9,23.1,63.5,23.1c10.9,0,21.3-2.6,31.9-8
		c8.5-4.3,14.9-9.6,20.6-14.3c9.3-7.7,17.3-14.3,30.9-14.3c4,0,8.2,0.5,12.9,1.7c38.5,9.1,55.5,44.5,71.9,78.8
		c7.7,16.1,15.6,32.7,25.6,45.9c20.1,26.6,46,41.2,73,41.2l1.4,0c27.1-0.5,53.1-15.4,73.2-42c27.3-36.1,76.9-153.6,56.4-212.1
		c-6.1-17.3-17.7-28.2-34.7-32.5c-6-1.5-11.5-2.2-17-2.2c-17.5,0-30.6,7.8-45.8,16.9c-3.4,2-6.9,4.2-10.7,6.3
		c-30.8,17.4-61.3,21-93.6,24.8c-12.7,1.5-25.8,3-39.1,5.5c-14.8,2.7-28.1,7.9-40.9,12.9c-16.9,6.6-32.9,12.7-50.5,12.7
		c-11.9,0-23.5-2.9-35.5-8.8c-24.7-12.2-51.7-23.4-81.4-23.4c-9.9,0-19.5,1.2-29.6,3.6c-4.6,1.1-9,2.2-13.4,3.4
		c-17.2,4.4-33.5,8.5-50,8.5c-13.4,0-26-2.8-38.4-8.5l-5.3-2.4c-22.7-10.5-46.1-21.3-70.1-21.3c-13.2,0-25.5,3.2-37.4,9.8
		c-15,8.3-35.1,43.4-35.1,67.8C1628.2,2144.5,1632.6,2153,1640.9,2157.6z M1664.7,2067.8c11.5-6.4,23.2-9.5,35.9-9.5
		c23.3,0,46.5,10.7,68.8,21l5.3,2.4c12.9,5.9,25.8,8.8,39.7,8.8c16.9,0,33.3-4.2,50.7-8.6c4.4-1.1,8.8-2.2,13.4-3.3
		c9.8-2.3,19.2-3.5,28.9-3.5c29.2,0,55.7,11.1,80.1,23.1c12.4,6.1,24.4,9.1,36.8,9.1c18.1,0,34.4-6.3,51.6-12.9
		c12.7-4.9,25.9-10,40.4-12.7c13.2-2.4,26.2-4,38.9-5.5c32.6-3.8,63.4-7.5,94.7-25.2c3.7-2.1,7.3-4.2,10.7-6.3
		c14.8-8.8,27.6-16.5,44.3-16.5c5.2,0,10.5,0.7,16.2,2.2c15.9,4,26.9,14.3,32.6,30.6c20.2,57.5-28.9,173.6-55.9,209.3
		c-19.5,25.8-44.7,40.3-70.8,40.8l-1.3,0c-26,0-51.1-14.2-70.6-40c-9.8-13-17.3-28.7-25.3-45.4c-16.7-34.9-34-71-73.9-80.4
		c-5-1.2-9.4-1.7-13.6-1.7c-14.6,0-23.1,6.9-32.8,15c-5.9,4.8-11.9,9.8-20.1,14c-10.1,5.2-20.1,7.7-30.5,7.7
		c-21.8,0-41.3-11-62-22.7c-20.5-11.6-41.8-23.6-65.4-23.6l-1.5,0c-11.6,0.2-21.3,2.7-30.8,5c-8.7,2.2-17,4.2-25.8,4.2
		c-8.7,0-16.8-2-25.4-6.3c-3.6-1.8-7.1-3.7-10.4-5.6c-9.3-5.2-18.2-10.2-28.5-10.2c-5.4,0-10.9,1.4-16.7,4.1
		c-4.6,2.2-9.8,7.4-15.4,12.9c-8.8,8.8-18.8,18.7-28.3,18.7c-2.2,0-4.3-0.6-6.4-1.7c-7.4-4.1-11.1-11.5-11.2-22
		C1631.2,2108.2,1652.1,2074.8,1664.7,2067.8z"/>
	<path class="st1" d="M1253.9,2369.7c3.8,1,10.7,1.5,19.5,1.5c18.2,0,86-2.7,191.6-37.6c88.3-29.2,191.6-45.2,290.8-45.2
		c163.3,0,271.8,24.5,411.6,158.2c9.9,9.5,23.2,14.3,39.5,14.3c60.7,0,152.6-66.1,209.1-150.5c44.2-65.9,108.3-200.6,42.1-361.6
		c-28.5-69.3-64.4-78.8-98.8-78.8c-42.6,0-95.9,17.2-157.6,37.1c-83.2,26.8-177.5,57.2-282,57.2c-83.3,0-159.8-19.2-233.9-58.7
		c-234.1-124.8-237.2-357.4-219.3-521.4c5.6-50.8-2.3-91-22.2-113.2c-12-13.3-27.9-20.1-47.5-20.1c-44.5,0-100.5,36.3-121.5,105.7
		c-19,62.7,35,131,97.6,210.2c80,101.1,179.5,226.9,160.1,395.5c-5.6,48.3-18.4,94.2-38.3,136.5c-31.6,67.2-73.4,124.3-124.2,169.6
		c-33.5,29.9-67.2,50.8-91.7,66.1c-22.4,13.9-35.9,22.3-34.9,28.7C1244.2,2365.9,1247.4,2368,1253.9,2369.7z M1279.6,2335.9
		c24.6-15.3,58.3-36.2,92-66.2c51-45.5,92.9-102.7,124.7-170.2c20-42.4,32.9-88.5,38.5-137c19.5-169.3-80.3-295.5-160.5-396.8
		c-62.3-78.7-116.1-146.7-97.3-208.5c20.8-68.6,76-104.5,119.8-104.5c19,0,34.6,6.6,46.2,19.5c19.5,21.8,27.3,61.5,21.8,111.8
		c-18,164.6-14.8,397.9,220.2,523.2c74.3,39.6,151.1,58.9,234.7,58.9c104.8,0,199.2-30.4,282.6-57.3c61.5-19.8,114.7-37,157-37
		c33.8,0,69,9.4,97.2,77.7c66,160.2,2.1,294.2-41.9,359.9c-55.3,82.5-148.4,149.7-207.6,149.7c-15.8,0-28.7-4.6-38.3-13.8
		c-67.7-64.8-130.8-106-198.3-129.7c-58.2-20.4-122.3-29-214.5-29c-99.4,0-202.9,16.1-291.4,45.3c-105.4,34.8-172.9,37.5-191.1,37.5
		c-8.6,0-15.3-0.5-19-1.5c-5.5-1.4-8.5-3.2-8.8-5.2C1244.7,2357.6,1259.4,2348.5,1279.6,2335.9z"/>
	<path class="st1" d="M1396.7,1292.3c-32.2,0-67.5,32.5-79.1,61.7c-7.7,19.4-1.8,52.5,15.6,88.6c16.5,34,38.4,60.2,54.6,65
		c2.5,0.7,5,1.1,7.4,1.1c2.7,0,5.4-0.5,8-1.4c20.9-7.3,20.4-20.1,19.4-48.2c-0.6-17.3-1.5-40.9,2-73.4c4.8-43.6-2-76.8-11.3-87.1
		C1410.5,1295.3,1406.4,1292.3,1396.7,1292.3z M1421.7,1385.4c-3.6,32.7-2.7,56.5-2.1,73.8c1,28.2,1.4,38.7-17.4,45.2
		c-4.4,1.5-8.9,1.6-13.5,0.2c-15.4-4.6-36.6-30.1-52.8-63.5c-17.1-35.3-22.9-67.6-15.6-86.1c11.2-28.3,45.3-59.8,76.3-59.9
		c8.5,0,12,2.6,14.4,5.4C1420,1310.4,1426.4,1342.7,1421.7,1385.4z"/>
	<path class="st1" d="M2123,2161.8c6.6,2.6,10.4,4.8,15.2,7.5c1.9,1.1,4,2.2,6.4,3.5c24.7,13.2,45.4,26.7,59.9,39
		c8.2,6.9,14.9,10.3,20.5,10.3c8.2,0,13-7,16.9-13.5c14.5-24.7,19.6-43.8,25.6-77.3c0.7-4.1,0.9-9.8-2.6-13.9
		c-4.3-5.2-12.9-6.1-25.5-2.6c-38,10.5-63.7,15.4-96.1,21.5c-5.7,1.1-11.5,2.2-17.7,3.4c-6.3,1.2-11,5.6-11.5,10.7
		C2114.1,2152.7,2114.5,2158.3,2123,2161.8z M2126.4,2143.1c6.1-1.2,12-2.3,17.7-3.4c32.5-6.2,58.2-11,96.4-21.6
		c4.7-1.3,8.8-2,12.3-2c4.5,0,7.8,1.2,9.7,3.4c2.6,3.1,2.4,7.7,1.8,11.1c-5.9,33-10.9,51.8-25.2,76.1c-4.2,7.1-8.1,11.8-13.9,11.8
		c-4.8,0-10.8-3.1-18.3-9.5c-14.7-12.4-35.6-26-60.5-39.4c-2.4-1.3-4.5-2.4-6.4-3.5c-5-2.8-8.9-5-15.6-7.7c-4.5-1.8-6.9-4.7-6.6-7.8
		C2118.1,2147.2,2121.7,2144,2126.4,2143.1z"/>
	<path class="st1" d="M1572,2225c5.5,0,12.3-0.5,20.8-1.4c3.7-0.4,90.7-10.2,184.1-10.2c36.4,0,68.9,1.5,96.5,4.5
		c138,14.8,257.3,80.6,314.4,139.2c10.5,10.8,23.1,16.2,37.3,16.2c32,0,71.3-27.8,108.1-76.3c64.3-85,83.7-247.6,51.9-311.6
		c-8.4-17-20.3-26-34.2-26c-1.2,0-2.3,0.1-3.5,0.2c-25.2,2.6-60.2,12.8-104.5,25.8c-83,24.3-196.6,57.7-319.9,59.6
		c-105.3,1.7-225.7-40-266.6-59.9c-13.4-6.5-22-9.4-28-9.4c-12.2,0-12.7,11.6-13.6,30.8c-0.7,15.3-1.6,36.2-9.1,60.1
		c-13.5,43.4-28.9,76.4-40.1,100.4c-12.4,26.7-20,42.8-14.6,51.2C1553.8,2222.9,1560.4,2225,1572,2225z M1567.2,2167.9
		c11.2-24.1,26.6-57.1,40.2-100.7c7.5-24.1,8.5-45.2,9.2-60.6c0.8-18.8,1.3-29.1,11.8-29.1c5.6,0,14.3,2.9,27.3,9.2
		c40.3,19.6,157.1,60.1,261.2,60.1c2.1,0,4.1,0,6.2,0c123.5-2,237.3-35.4,320.3-59.7c44.2-13,79.2-23.2,104.2-25.8
		c14.9-1.5,27,6.9,35.9,24.8c31.6,63.6,12.2,225.2-51.7,309.7c-36.4,48.1-75.2,75.6-106.6,75.6c-13.7,0-25.9-5.3-36-15.7
		c-57.3-58.8-177.1-124.9-315.6-139.8c-27.7-3-60.2-4.5-96.6-4.5c-93.5,0-180.7,9.8-184.3,10.2c-8.4,1-15.1,1.4-20.6,1.4
		c-10.8,0-17.1-1.9-19.6-5.8C1547.6,2209.8,1555,2194.1,1567.2,2167.9z"/>
	<path class="st1" d="M1437.8,2293.7c5.6,0,12.7-1.4,20.2-4c84-29.1,181.5-43.3,297.9-43.3c145,0,288.7,13.3,452,173.8
		c4.7,4.6,10.9,6.9,18.3,6.9h0c45.7,0,130-87.5,155.1-140.2c2.3-4.8,4.8-9.9,7.4-15.3c31.8-65.3,85.1-174.6,30.7-306.8
		c-21.8-52.8-42.1-52.8-60-52.8c-36,0-86.4,16.2-144.7,35c-86.1,27.8-183.7,59.2-294.9,59.2c-95.1,0-172-17.5-249.5-56.7
		c-12-6.1-23.5-12.7-33.7-18.5c-20.4-11.7-36.5-20.9-46.9-20.9c-8.1,0-12.1,5.6-12.2,17.3c0,1.8,0.3,4.8,0.7,8.9
		c11.1,113.9-33,220.2-131.1,316c-17.1,16.7-24.4,28.7-21.5,35.7C1426.8,2291.8,1431.1,2293.7,1437.8,2293.7z M1448.1,2253.6
		c63.1-61.6,104.4-128.5,122.8-198.7c14.8-56.5,10.6-100.1,8.8-118.7c-0.4-4.1-0.7-7-0.7-8.7c0.2-13.9,6-15.5,10.4-15.5
		c9.9,0,26.6,9.6,46,20.7c10.2,5.9,21.8,12.5,33.8,18.6c77.7,39.3,154.9,56.9,250.3,56.9c111.4,0,209.2-31.5,295.4-59.3
		c58.2-18.8,108.5-35,144.2-35c17.4,0,37,0,58.3,51.7c54.1,131.5,1.1,240.3-30.6,305.4c-2.6,5.4-5.1,10.5-7.4,15.3
		c-24.8,52.4-108.4,139.2-153.4,139.2c-7,0-12.7-2.2-17.1-6.4c-75.9-74.6-154.4-123.4-240-149.3c-76.3-23.1-147.2-25-213.2-25
		c-116.6,0-214.3,14.2-298.5,43.4c-7.3,2.5-14.2,3.9-19.6,3.9c-4.1,0-9.2-0.8-10.7-4.5C1425.6,2283.9,1426.4,2274.8,1448.1,2253.6z"
		/>
	<path class="st1" d="M1115.3,0h-4.4c-9.2,32.3-15.7,67.8-19.5,106.7c-6.7,67.7-12.5,156.3,1.3,241.7c10.1,62.3,30.4,90,65.7,90
		c0,0,0,0,0,0c22.6,0,48.8-10.9,79.2-23.6c21.1-8.8,42.9-17.9,66.3-24.5c2.2-0.6,4.5-1.2,6.7-1.9c66.4-17.8,141.3-20.3,220.7-7.5
		c21.3,3.5,42.9,9.4,63.8,15.2c30.5,8.4,62,17.1,93.9,18.5c17.3,0.8,29.7-1,38.4-5.3c25.5-12.7,13.1-44.5,0-78.1
		c-7.8-19.9-15.8-40.4-17.1-58.9c-7-97.9,47.7-187.1,120-272.4h-5.5c-71.7,85.1-125.7,174.4-118.6,272.7
		c1.4,19.1,9.5,39.9,17.4,60.1c13,33.2,24.1,61.8,2.1,72.8c-8,4-20,5.6-36.4,4.9c-31.5-1.4-62.8-10-93-18.4
		c-21-5.8-42.7-11.8-64.3-15.3c-80-13-155.5-10.4-222.5,7.6c-2.3,0.6-4.5,1.2-6.8,1.9c-23.6,6.7-45.5,15.8-66.7,24.7
		c-30,12.5-55.8,23.3-77.6,23.3c-32.9,0-51.9-26.7-61.6-86.5c-13.8-84.9-7.9-173.2-1.3-240.6C1099.4,68,1105.9,32.4,1115.3,0z"/>
	<path class="st1" d="M1061.5,1679.1c-4-3.6-7.6-5.4-11-5.4c-8.4,0-14.3,10.7-23.2,26.8c-9.2,16.7-21.8,39.7-43.7,62.9l-6.4,6.8
		c-25,26.5-36.5,38.7-33.7,45.2c1.3,3,5.1,4.3,12.5,4.3c6.3,0,15.6-0.9,31-3.1c6.4-0.9,12.8-1.3,19.3-1.3c52,0,95.4,29.2,127.1,50.5
		c18.5,12.5,33.2,22.3,43.7,22.3c4.4,0,8-1.8,10.7-5.2C1221,1840.1,1104.8,1718.4,1061.5,1679.1z M1185.4,1880.9
		c-2.1,2.7-4.9,4.1-8.3,4.1c-9.6,0-23.9-9.6-42-21.8c-32-21.5-75.8-51-128.8-51c-6.6,0-13.2,0.5-19.7,1.4
		c-15.3,2.1-24.4,3.1-30.5,3.1c-5.8,0-9.1-0.8-9.8-2.5c-2-4.7,11.9-19.5,33.1-41.9l6.4-6.8c22.1-23.5,34.8-46.6,44.1-63.5
		c8.4-15.2,13.9-25.3,20.6-25.3c2.6,0,5.5,1.5,8.9,4.6C1113.3,1730.1,1214.9,1843.1,1185.4,1880.9z"/>
	<path class="st1" d="M1062.3,1729.1c-21,0-48,33.1-48.2,48.8c-0.1,6.4,3.9,10.2,11,10.3c30.9,0.6,63.6,20.2,87.5,34.5
		c14.2,8.5,24.4,14.6,30.4,14.6h0c1.9,0,3.5-0.6,4.6-1.8c1.4-1.5,1.9-3.8,1.7-7c-2.2-28.8-57-86.6-79.2-97.7
		C1067.7,1729.7,1065.1,1729.1,1062.3,1729.1z M1145.1,1828.9c0.2,2.5-0.3,3.5-0.6,3.8c-0.1,0.1-0.4,0.5-1.5,0.5h0
		c-4.9,0-15.7-6.5-28.3-14c-24.3-14.6-57.5-34.5-89.6-35.1c-4.8-0.1-6.9-2-6.8-6.1c0.1-14,25.3-44.7,44-44.7c2.1,0,4.1,0.4,5.9,1.3
		C1092.1,1746.6,1143.1,1802.8,1145.1,1828.9z"/>
	<path class="st1" d="M988.1,1184.9C988.1,1184.9,988.1,1184.9,988.1,1184.9c5.2,0,9.3-7.3,13.3-23.7
		c15.1-61.2,64.8-142.3,142.1-185.4c78.2-43.6,130.3-54.9,158.3-61c13.9-3,20.9-4.5,22.6-8.2c0.6-1.4,0.4-3-0.6-5
		c-5.4-9.9-102.2-64-241.5-75.3l-5.9-0.5c-12.6-1-23.4-1.9-33.8-1.9c-36.3,0-65.7,10.2-134,67.9c-10.8,9.1-21.9,17.6-32.5,25.8
		c-33.1,25.4-61.6,47.2-59.8,72.1c1.4,19.1,20.3,38,59.5,59.6c43.3,23.9,69.7,71.3,87.2,102.6
		C973.8,1171.8,981.2,1184.9,988.1,1184.9z M876.4,1047.7c-38-21-57.2-40-58.5-58.2c-1.8-23.9,26.4-45.5,59.1-70.5
		c10.7-8.2,21.8-16.7,32.6-25.8c67.9-57.4,97-67.5,132.9-67.5c10.3,0,21.1,0.9,33.7,1.9l5.9,0.5c136.1,11,235,65,240.1,74.3
		c1,1.9,0.8,2.8,0.6,3.4c-1.3,2.8-8.8,4.5-21.3,7.2c-28.1,6.1-80.4,17.5-158.8,61.2c-77.7,43.4-127.8,125-142.9,186.6
		c-3.7,15-7.5,22.3-11.6,22.3h0c-5.9,0-13.7-14.2-23.7-32.1C946.8,1119.5,920.2,1071.9,876.4,1047.7z"/>
	<path class="st1" d="M999.4,1287.9c5.2,0,8.8-6.3,11.3-19.7c15.6-82.6,49.4-199.6,162.2-262c34.9-19.3,74.3-34.6,120.4-46.7
		c9.3-2.4,19.2-9.1,28.8-15.6c12.4-8.4,25.3-17,37.2-17c1.4,0,2.7,0.1,4,0.3c6.7,1.2,11.6,5,16.4,8.7c5.4,4.2,10.5,8.1,17.6,8.1
		c2.7,0,5.4-0.6,8.3-1.7c5.1-2,7.7-5.9,10.2-9.7c3.6-5.3,7-10.4,17.1-9.5c10.1,0.9,15.6,8.6,21.4,16.8c4,5.7,8.2,11.6,14.1,14.9
		c4.3,2.4,12.1,5,19,5c4.8,0,8.2-1.3,10.1-3.8c1.8-2.4,2.1-5.8,0.9-10.1c-3.9-14.1-34.3-27.4-54.3-36.1c-5.9-2.6-11-4.8-14.3-6.6
		c-29.9-15.8-59.7-29.2-84.9-40.3c-106.3-46.5-203.3-74.9-296.3-86.8c-10.5-1.3-19.6-2-27.8-2c-45.8,0-81.3,20-152,85.8
		c-17.3,16.1-35.2,30-52.5,43.4c-38.7,30-69.2,53.7-68.5,83.5c0.6,23.5,21,48.6,64.3,78.9c69.7,48.8,116,122.9,146.6,171.9
		C977.9,1268,990.3,1287.9,999.4,1287.9z M813.4,1064.3c-42.8-30-63-54.6-63.5-77.5c-0.7-28.9,29.5-52.4,67.8-82.1
		c17.3-13.4,35.2-27.3,52.6-43.5C940.5,795.9,975.8,776,1021,776c8.1,0,17.1,0.6,27.5,2c92.9,11.8,189.6,40.2,295.8,86.6
		c25.2,11,55,24.4,84.8,40.2c3.4,1.8,8.5,4,14.5,6.6c19.8,8.6,49.6,21.6,53.3,34.9c1,3.7,0.8,6.6-0.6,8.5c-1.9,2.5-5.8,3.1-8.7,3.1
		c-6.3,0-13.9-2.4-18.1-4.8c-5.6-3.1-9.6-8.8-13.5-14.4c-5.8-8.2-11.7-16.6-22.7-17.5c-11.3-1-15.1,4.8-18.8,10.3
		c-2.5,3.7-4.8,7.2-9.4,9c-2.7,1.1-5.2,1.6-7.7,1.6c-6.4,0-11.3-3.8-16.5-7.8c-5-3.8-10.1-7.8-17.2-9.1c-1.4-0.3-2.9-0.4-4.3-0.4
		c-12.4,0-25.5,8.8-38.2,17.4c-9.9,6.7-19.3,13-28.3,15.4c-46.3,12.2-85.8,27.5-120.8,46.9c-113.5,62.8-147.5,180.3-163.1,263.3
		c-2.3,12.3-5.4,18.2-9.6,18.2c-8.1,0-21-20.7-38.9-49.3C929.8,1187.6,883.4,1113.4,813.4,1064.3z"/>
	<path class="st1" d="M1221.1,2040.8c41-4.7,79.7-32.9,98.5-71.8c17.2-35.6,26.5-95.9-26.8-181.4c-22.9-36.7-47.8-73.7-72-109.6
		c-69-102.4-134.2-199.2-161.1-296.3c-30.4-109.8-6-200.4,76.9-285.1c71.8-73.3,166.7-115.4,260.4-115.4
		c70.4,0,133.2,24.8,176.8,69.7c48,49.4,71.9,121.7,69.3,209c-0.6,20.3-1.6,41.2-2.6,63.4c-3.6,78.8-7.7,168.2,5,242.5
		c14.6,85.5,49.4,138.3,106.2,161.4c30.4,12.4,59.2,18.7,85.7,18.7c48.1,0,89-21,118.3-60.7c49.9-67.5,61.8-183.1,29.7-287.6
		c-68.8-224.3-234.3-358.2-478.9-501.5c-185.8-108.9-342.8-142.5-484.7-162.6c-10.6-1.5-20.7-2.3-29.9-2.3
		c-59.3,0-87.5,30.2-123.2,68.4c-13.7,14.7-27.9,29.8-45.5,45.3c-20.3,17.8-37.9,28.7-53.5,38.3c-25,15.4-46.6,28.6-70.4,64.2
		c-47.2,70.5,15.9,113.8,82.7,159.5c35.3,24.2,71.8,49.2,91.4,78.8c122.9,186.2,73.3,384.8-14.1,508.6
		c-25,35.4-61.5,68.8-100.1,104.2c-47.2,43.3-96.1,88-124,137.9c-12,21.5-15.4,36.1-10.4,44.6c3.7,6.2,11.7,9.3,24.7,9.3
		c0,0,0,0,0,0c23,0,59.7-9.6,102.1-20.6c59.5-15.5,133.5-34.8,198.8-34.8c34.6,0,64.3,5.5,88.3,16.4c23.8,10.8,44,26.5,63.5,41.7
		c32.1,24.9,62.4,48.5,105.2,48.5C1211.8,2041.5,1216.4,2041.3,1221.1,2040.8z M1039.4,1949.7c-24.5-11.1-53.6-16.6-89-16.6
		c-65.6,0-139.7,19.3-199.3,34.9c-42.3,11-78.8,20.5-101.6,20.6c0,0,0,0,0,0c-12.3,0-19.8-2.7-23.1-8.4c-4.6-7.9-1.2-21.9,10.5-42.8
		c27.8-49.7,76.5-94.3,123.6-137.5c38.7-35.4,75.2-68.9,100.3-104.4c51.2-72.6,81.5-155.3,87.4-239.3c6.8-96-17.8-187.3-73.3-271.3
		c-19.7-29.9-56.4-55-91.8-79.3c-66.1-45.3-128.4-88-82.3-157.1c23.5-35.2,45-48.4,69.8-63.6c15.6-9.6,33.4-20.5,53.8-38.4
		c17.7-15.5,31.9-30.8,45.6-45.5c35.4-37.9,63.4-67.8,121.9-67.8c9.2,0,19.2,0.8,29.7,2.2c141.7,20.1,298.5,53.7,484,162.4
		c244.2,143.1,409.4,276.8,478.1,500.5c31.9,104,20.1,219-29.5,286c-29,39.2-69.4,59.9-116.9,59.9c-26.2,0-54.8-6.2-85-18.5
		c-56.2-22.9-90.5-75.3-105.1-160.1c-12.7-74.2-8.6-163.4-5-242.2c1-22.2,2-43.1,2.6-63.4c2.6-87.8-21.5-160.5-69.8-210.3
		c-44-45.3-107.2-70.3-178.1-70.3c-94.1,0-189.5,42.3-261.6,115.9c-44,45-71.2,91.4-83.2,141.9c-10.6,45.1-8.7,92.5,5.8,144.9
		c27,97.4,92.2,194.2,161.3,296.8c24.1,35.8,49.1,72.9,71.9,109.5c52.9,84.8,43.7,144.5,26.7,179.7c-18.6,38.4-56.7,66.2-97.1,70.8
		c-4.6,0.5-9.1,0.8-13.6,0.8c-42.2,0-72.2-23.4-104.1-48.1C1083.7,1976.4,1063.4,1960.6,1039.4,1949.7z"/>
	<path class="st1" d="M1260.4,1966.3c15.7-11.4,24.9-27.5,27.4-47.6c7.2-59-45.2-145.1-92.2-200.8
		c-58.6-69.6-116.8-143.9-145.3-215.8c-1.4-3.5-3.6-13.5-6.3-26.2c-9.2-42.7-24.5-114.2-46.7-114.2c-2.1,0-4.1,0.6-6.2,1.8
		c-9.2,5.5-11.9,16.2-8.3,32.9c3,13.6,9.8,29.3,15.7,43.2c6.3,14.7,11.8,27.3,11.7,34.5c-0.2,18.5-8.9,26.7-17.2,34.6
		c-6.5,6.2-13.3,12.6-15.7,23.6c-3.1,14.3,2.8,25,8.5,35.4c5.3,9.6,10.7,19.5,9,32.3c-3.2,23.4-77.4,108-142.9,182.6
		c-54.2,61.7-101,115.1-100.2,125.3c0.1,0.8,0.3,1.4,0.9,1.8c4.5,3.7,12.6,5.5,24.9,5.5h0c19.4,0,46.3-4.3,77.6-9.3
		c37.9-6.1,80.8-13,118-13c29.1,0,50.9,4.1,66.5,12.7c8.5,4.6,18,10.2,28.1,16c44.8,26,100.4,58.4,147.6,58.4
		C1232.7,1980,1247.9,1975.4,1260.4,1966.3z M1040.4,1904.1c-16-8.7-38-12.9-67.4-12.9c-37.4,0-80.4,6.9-118.3,13
		c-31.2,5-58.1,9.3-77.3,9.3h0c-11.8,0-19.6-1.7-23.8-5.1c0,0-0.2-0.2-0.2-0.6c-0.7-9.5,48.1-65.1,99.8-123.9
		c65.7-74.8,140.1-159.6,143.4-183.6c1.8-13.4-3.8-23.5-9.2-33.4c-5.8-10.5-11.3-20.5-8.3-34.1c2.3-10.5,8.6-16.4,15.2-22.7
		c8.6-8.2,17.6-16.6,17.8-35.9c0.1-7.6-5.4-20.4-11.9-35.2c-6-13.8-12.7-29.4-15.6-42.8c-3.4-15.8-1-25.9,7.5-30.9
		c1.8-1,3.5-1.6,5.3-1.6c20.7,0,36.5,73.3,44.9,112.8c2.8,13.2,4.9,22.8,6.4,26.5c28.6,72.1,86.9,146.5,145.6,216.2
		c46.8,55.5,98.8,141,91.7,199.4c-2.4,19.6-11.4,35.2-26.7,46.4c-12.2,8.9-27,13.3-44.1,13.3c-46.6,0-102.1-32.2-146.7-58.1
		C1058.5,1914.3,1049,1908.7,1040.4,1904.1z"/>
	<path class="st1" d="M1239.9,1891c5.4-49.4-47.6-127-74.1-156.8c-45.7-51.4-77.5-95.2-98.6-124.3c-20.9-28.8-32.4-44.6-39.9-44.6
		c-5.1,0-7.9,6.6-9.7,22.9c-13.1,122.2-92.1,188.3-139.3,227.8c-20.7,17.3-34.3,28.7-34.9,38.2c-0.2,2.7,0.8,5.2,2.9,7.4
		c4.3,4.6,11.1,6.7,21.5,6.7c11.6,0,26.3-2.7,43.4-5.8c22.1-4.1,47.1-8.6,72.8-8.6c34.9,0,63.1,8.7,86.1,26.6
		c32.4,25.2,80.5,52.1,118.1,52.1c0,0,0,0,0,0c13.5,0,25.2-3.4,34.5-10.3C1232.6,1915.1,1238.4,1904.6,1239.9,1891z M1188.2,1930.8
		C1188.2,1930.8,1188.2,1930.8,1188.2,1930.8c-37.1,0-84.8-26.7-117-51.7c-23.4-18.2-51.9-27-87.2-27c-25.8,0-50.9,4.6-73.1,8.7
		c-16.9,3.1-31.6,5.8-43,5.8c-9.8,0-16.2-2-20.2-6.2c-1.7-1.9-2.5-3.8-2.4-6.1c0.5-8.7,14.7-20.5,34.3-36.9
		c47.4-39.7,126.8-106.1,139.9-229c1.6-14.7,4-21.2,7.9-21.2c6.5,0,18.5,16.5,38.4,43.9c21.1,29,53,72.9,98.7,124.4
		c26.3,29.6,78.9,106.6,73.6,155.4c-1.4,13-6.9,23.2-16.4,30.1C1212.6,1927.5,1201.4,1930.8,1188.2,1930.8z"/>
	<path class="st1" d="M1752.5,1397.3c-6.2,93.8,20.8,158.4,48.1,187.6c12.5,13.3,26.2,20.7,38.6,20.7h0c17.5,0,30.6-13.7,37-38.7
		c41-160.6-98.6-330-115.7-344.1c-4.9-4.1-8.4-4.6-10.6-2.2c-4,4.4-2.7,18.7-0.5,44.7C1752.1,1296.1,1756.1,1342.6,1752.5,1397.3z
		 M1752.1,1222.7c0.3-0.3,0.6-0.5,1.1-0.5c0.8,0,2.4,0.5,5.4,2.9c17,14,155.3,181.9,114.7,341.1c-6,23.5-18.1,36.4-34.1,36.4h0
		c-11.5,0-24.5-7-36.4-19.7c-26.9-28.7-53.4-92.5-47.3-185.3c3.6-55-0.4-101.6-3.1-132.4C1750.4,1242.5,1749,1226.1,1752.1,1222.7z"
		/>
	<path class="st1" d="M2484.3,342.2c-46.9,0-98.9,8.9-154,18.3c-65.8,11.2-133.7,22.8-207.8,22.8c-5.5,0-10.8-0.1-16-0.2
		c-4.4-0.1-8.8-0.2-13.1-0.3c-11.2-0.3-21.8-0.6-32-0.6c-63.8,0-103.4,13-129.4,81.6c-16.5,43.4-35.1,92.5-79.9,124.2
		c-12.7,9-25.3,16.6-36.5,23.4c-25.9,15.7-46.4,28-47.2,45.1c-0.7,15.7,15.2,34.6,51.5,61.2c34.8,25.6,63.5,38,87.6,38
		c2.2,0,4.4-0.1,6.5-0.3c35-3.3,58.5-32.2,88.3-68.9c13.5-16.7,28.9-35.5,46.8-53.5c77.9-77.9,173.7-134.8,276.9-164.4
		c43.5-12.5,86.6-18.8,127.9-18.8c102.1,0,180.8,36.9,246,79.6v-2.2c-65.2-42.5-143.9-79.2-246-79.2c-41.5,0-84.7,6.4-128.4,18.9
		c-103.5,29.7-199.6,86.7-277.7,164.8c-18,18-33.4,37-47,53.7c-29.5,36.3-52.8,65-87.1,68.2c-2.1,0.2-4.2,0.3-6.3,0.3
		c-23.7,0-52-12.3-86.6-37.6c-35.8-26.3-51.4-44.7-50.8-59.7c0.7-16.1,20.8-28.3,46.3-43.7c11.2-6.8,23.9-14.4,36.6-23.5
		c45.2-32,64-81.5,80.6-125.1c25.7-67.6,64.7-80.5,127.7-80.5c10.2,0,20.7,0.3,31.9,0.6c4.3,0.1,8.6,0.2,13.1,0.3
		c5.1,0.1,10.5,0.2,16,0.2c74.2,0,142.3-11.6,208.1-22.8c55-9.4,106.9-18.2,153.7-18.2c27.1,0,50.8,3,72.4,9.2
		c46.5,13.3,94.1,35.1,143.3,60.5v-2c-49-25.3-96.4-46.9-142.8-60.2C2535.4,345.2,2511.6,342.2,2484.3,342.2z"/>
	<path class="st1" d="M1706.1,1391.9c-7,91,11,164.7,50.6,207.5c20.7,22.4,46.2,34.7,71.7,34.7c0,0,0,0,0,0
		c36.3,0,65.4-25.3,74.1-64.3c25.3-114.2-13.8-217-51.1-283.1c-43.8-77.7-99.8-132.6-126.8-150.6c-9.8-6.6-16.8-10.6-21-10.6
		c-1.5,0-2.8,0.5-3.7,1.6c-3.5,3.9-2.1,15,0.8,37.2C1705.7,1203.3,1715,1276.2,1706.1,1391.9z M1701.3,1128.2
		c0.6-0.6,1.3-0.9,2.3-0.9c3.8,0,10.7,4.1,20,10.3c60.9,40.6,222.7,225.7,177.1,431.8c-8.5,38.2-36.8,62.9-72.3,62.9
		c-25,0-50-12.1-70.3-34.1c-39.3-42.4-57.1-115.6-50.1-206.1c8.9-115.9-0.4-188.9-5.4-228.2
		C1699.9,1143.7,1698.3,1131.5,1701.3,1128.2z"/>
	<path class="st1" d="M1671.6,1397.8c-6.9,113.3,14.8,202.8,61.1,252c23.9,25.5,53,38.9,84,38.9h0c59.4,0,109.7-48,125.2-119.6
		c22.9-105.5,3.2-209.4-58.4-308.7c-62.4-100.6-148.8-165.7-194.8-195.5c-23.4-15.2-33.4-21.5-37.3-16.9c-3.2,3.8-1.1,14.7,3,36.5
		C1663.3,1131.7,1681.8,1229.6,1671.6,1397.8z M1652.8,1049.3c0.5-0.6,1.2-0.9,2.1-0.9c4.8,0,15.4,6.8,32.8,18.1
		c153.1,99.4,299.8,283.5,252.4,502.3c-15.3,70.7-64.9,118.2-123.4,118.1c-30.5,0-59.1-13.3-82.7-38.3
		c-45.9-48.8-67.5-137.9-60.6-250.7c10.3-168.4-8.3-266.5-17.2-313.7C1652.4,1064.4,1650.2,1052.4,1652.8,1049.3z"/>
	<path class="st1" d="M981.1,1021.4c17,0,29.2-16.4,42.2-41c22.8-43,70.3-63.8,95.8-74.9c12.9-5.7,17.8-7.8,17.1-11.3
		c-0.5-3-3.8-4.2-21.5-5.4c-53.1-3.6-172.4,47.1-186.2,85.3c-3.2,8.8-0.8,16.9,6.8,23.2C955.8,1014.1,969.5,1021.4,981.1,1021.4
		C981.1,1021.4,981.1,1021.4,981.1,1021.4z M932.5,975.4c12.6-34.9,123.4-82.7,176.5-82.7c1.9,0,3.7,0.1,5.4,0.2
		c10.4,0.7,15,1.5,16.9,2.1c-2.2,1.6-8.2,4.1-13.9,6.7c-26,11.4-74.4,32.5-97.8,76.8c-14.7,27.9-25.5,38.7-38.5,38.7
		c-10.5,0-23.4-6.9-43.1-23.2C931.7,988.7,929.9,982.7,932.5,975.4z"/>
	<path class="st1" d="M1033.3,1019.2c40.9-74.4,115.5-100.4,176-114.8c5.8-1.4,6.4-4.4,6.2-6c-1.4-12.1-58.1-35.3-142.6-35.3
		c-9.5,0-19.3,0.3-29,0.9c-38.6,2.3-129.7,56.2-162.4,96.1c-8.5,10.4-12.4,19-11.4,25.6c2.3,16.5,17,23.9,34.1,32.4
		c18.1,9,38.5,19.2,48.5,43c5.8,13.8,13.4,20.9,22.7,20.9C990.9,1081.9,1010.5,1060.8,1033.3,1019.2z M955.4,1059.9
		c-10.4-24.8-31.4-35.3-49.9-44.5c-16.3-8.1-30.4-15.1-32.5-30.1c-0.8-5.7,3-13.8,10.8-23.3c32.4-39.4,122.3-92.7,160.3-95
		c9.6-0.6,19.3-0.9,28.8-0.9c83.1,0,138.5,23,139.6,32.7c0.2,1.5-2.3,2.4-3.9,2.7c-61.1,14.5-136.5,40.8-178,116.2
		C996.2,1080.5,970.4,1095.7,955.4,1059.9z"/>
	<path class="st1" d="M1822.8,1533.8C1822.8,1533.8,1822.8,1533.8,1822.8,1533.8c3.2,0,5.9-2.2,8.3-6.5
		c11.7-21.9,11.5-97.7-19.5-143.9c-4-6-9.9-5.2-14.2,2.3c-11.6,20.1-16.5,83.8,15.2,139.4
		C1815.7,1530.8,1819.2,1533.8,1822.8,1533.8z M1800.9,1387.8c1.5-2.7,3.2-4.3,4.4-4.3c1.1,0,2.2,1.3,2.7,2.1
		c29.7,44.2,30.3,119,19.3,139.6c-1.5,2.8-3.1,4.3-4.5,4.3c-1.9,0-4.3-2.4-6.7-6.6C1785.6,1469.5,1790,1406.6,1800.9,1387.8z"/>
	<path class="st1" d="M2213,1717.9c4.3,6.2,14.7,8.8,35,8.8c12.6,0,27.7-1,45.2-2.2c21.6-1.4,46.1-3.1,71.5-3.1
		c80.2,0,134.3,17,170.4,53.8c33.5,25.8,52,67.9,68.4,105c19.8,45.1,37,84.1,74.8,84.1c4,0,8.3-0.5,12.6-1.4c2.9-0.6,6-1.4,9.1-2.4
		v-3.1c-3.4,1.1-6.7,1.9-9.7,2.6c-4.2,0.9-8.2,1.3-12,1.3c-35.9,0-52.6-38.1-72.1-82.3c-16.5-37.4-35.1-79.9-69.1-106
		c-36.5-37.2-91.3-54.5-172.4-54.5c-25.4,0-50,1.6-71.7,3.1c-17.4,1.2-32.5,2.2-45,2.2c-18.6,0-28.9-2.4-32.5-7.5
		c-1.9-2.8-2-6.6-0.1-11.6c38.2-102,70.1-231.2,67-271c-5.4-69.7-36-135.5-65.6-199.1c-36.2-77.8-70.4-151.3-48.7-212.7
		c30.2-85.2,168.2-233.1,243-243.3c3.6-0.5,7.6-0.7,11.9-0.7c58.2,0,160.8,41.7,277,110.6v-3.5c-116.1-68.6-218.6-110.1-277-110.1
		c-4.5,0-8.6,0.3-12.4,0.8c-75.6,10.3-214.9,159.4-245.4,245.3c-22.1,62.5,12.3,136.5,48.8,214.9c29.5,63.4,60,129,65.4,198.1
		c2.7,34.8-25.9,160.3-66.9,269.7C2210.3,1709.5,2210.5,1714.2,2213,1717.9z"/>
	<path class="st1" d="M2497.5,2667.5c-3.4,0-9.2,0.4-16.6,0.8c-12.4,0.8-29.3,1.9-46.1,1.9c-41.7,0-63.5-6.9-64.9-20.4
		c-2.1-20.3,46.2-50.6,78.2-70.6c12.7-8,23.7-14.8,28.8-19.3c39.8-34.9,76.6-78.4,109.3-129.3c21.7-33.7,37.6-70,54.5-108.5
		c12.7-28.9,32.9-59,59.2-79.8v-2.2c-27.1,21-47.9,51.7-60.9,81.3c-16.8,38.4-32.8,74.7-54.3,108.2c-32.6,50.7-69.3,94.1-109,128.9
		c-5,4.4-15.9,11.2-28.6,19.1c-34.3,21.4-81.3,50.8-79.1,72.3c1.5,14.8,23.3,22,66.7,22c16.9,0,33.8-1.1,46.2-1.9
		c7.3-0.5,13.1-0.8,16.5-0.8c63.1,0,119.3,10.1,170,30.7h4.9C2620.4,2678.2,2562.6,2667.5,2497.5,2667.5z"/>
	<path class="st1" d="M1338.1,171.7c8,0,17.4-1.2,28.5-3.7c11.1-2.5,21.5-4.8,31-6.1c16.1-2.2,31.6-3.1,45.4-3.9
		c15.8-0.9,29.9-5.1,43.3-13c55.9-32.7,79.2-99.5,86.7-126.7c1.8-6.5,3.6-12.6,5.3-18.5h-1.9c-1.7,5.7-3.4,11.6-5.2,18
		c-7.4,27-30.5,93.3-85.8,125.6c-13.1,7.7-27,11.8-42.6,12.7c-13.8,0.8-29.3,1.7-45.5,3.9c-9.5,1.3-20,3.6-31.1,6.1
		c-11,2.4-20.2,3.6-28.1,3.6c-13.3,0-22.5-3.4-28.2-10.4c-8.5-10.4-9.7-28.9-3.8-58.4l1-4.8c8-40.6,21.8-71.8,43.4-96.2h-2.4
		c-21.3,24.5-34.9,55.6-42.8,95.9l-1,4.8c-6,30-4.7,49.1,4.2,59.9C1314.6,168,1324.3,171.7,1338.1,171.7z"/>
	<path class="st1" d="M2484.3,383.6c-43.4,0-93.7,8.6-147,17.7c-67.5,11.5-137.2,23.4-214.8,23.4c-5.7,0-11.3-0.1-16.9-0.2
		l-13.2-0.3c-10.9-0.3-21.2-0.6-30.9-0.6c-84.1,0-88.2,46.2-92.6,95.1c-2.4,26.8-4.9,54.6-19.7,78.2c-5.3,8.4-19.5,19.1-34.5,30.4
		c-32,24-68.2,51.2-50.8,76.7c7.5,11,16.5,16.5,26.8,16.5c5.6,0,11.7-1.7,18.1-5c28.4-14.6,58.7-57.9,83-92.7
		c13.8-19.7,25.8-36.8,32.3-40.7c6.8-4.1,14.5-4.6,21.1-4.6c2.5,0,5.1,0.1,7.7,0.2c2.6,0.1,5.3,0.2,7.9,0.2c9.9,0,20.3-1.2,29.7-9.8
		c11.4-10.3,12.8-23.7,14.2-36.7c1.2-11.6,2.4-22.6,10.2-31.9c23.4-28,105.5-47.5,159.8-60.4c16-3.8,29.8-7.1,40.1-10
		c47.2-13.6,94.1-20.4,139.3-20.4c100.3,0,180.5,32.9,246,72.2v-3.5c-65.5-39.1-145.7-71.7-246-71.7c-45.5,0-92.6,6.9-140.1,20.5
		c-10.2,2.9-24,6.2-39.9,10c-58,13.8-137.3,32.7-161.4,61.4c-8.3,10-9.6,21.9-10.8,33.5c-1.4,13-2.7,25.2-13.2,34.8
		c-8.7,7.9-18.5,9-27.7,9c-2.6,0-5.2-0.1-7.8-0.2c-2.6-0.1-5.2-0.2-7.8-0.2c-7,0-15.1,0.6-22.6,5.1c-7.1,4.2-18.6,20.7-33.2,41.6
		c-22.9,32.7-54.3,77.5-82,91.8c-16.9,8.7-30.3,5.3-41.1-10.6c-15.8-23.1,19.2-49.4,50.1-72.6c15.9-12,29.6-22.3,35.2-31.2
		c15.2-24.2,17.7-52.3,20.1-79.5c4.5-49.6,8.3-92.4,89.6-92.4c9.6,0,19.9,0.3,30.8,0.6l13.2,0.3c5.6,0.1,11.3,0.2,17,0.2
		c77.9,0,147.7-11.9,215.3-23.5c53.1-9.1,103.3-17.6,146.5-17.6c23.1,0,42.9,2.5,60.7,7.5c49,14,100.8,38.9,155,67.6v-3.4
		c-53.8-28.5-105.3-53.1-154.2-67.1C2527.8,386.1,2507.6,383.6,2484.3,383.6z"/>
	<path class="st1" d="M1349.7,108.3c4.6,9,14.6,13.5,29.6,13.5c3.9,0,8.2-0.3,12.8-0.9c17.6-2.4,34-3.3,48.6-4.2
		c4.3-0.2,8.3-0.9,12.3-2c4.3-1.2,8.4-3,12.5-5.4c32.5-19,70.8-74.8,72.1-109.4h-3c-1.3,33.2-39.5,88.6-70.6,106.8
		c-3.8,2.2-7.7,3.9-11.8,5.1c-3.7,1-7.5,1.7-11.7,1.9c-14.5,0.8-31,1.8-48.7,4.2c-20.7,2.8-34.1-0.9-39.3-11
		c-7-13.6,1.3-39.8,21.7-68.4c11.1-15.5,26.1-28.1,45.8-38.6h-6.3c-17.8,10.2-31.5,22.2-42,36.9
		C1350.3,66.8,1342.1,93.5,1349.7,108.3z"/>
	<path class="st1" d="M2303.6,1639.7c11.2,16,34.7,17.8,67.3,20.3c3.5,0.3,7.2,0.6,10.9,0.9c10.3,0.8,21.1,1.2,32.5,1.6
		c53,1.8,113.2,3.9,167.5,53.3l0.7,0.6c30.1,26.4,48,72.8,63.8,113.8c15.9,41.3,29.7,76.9,51.5,76.9c0.7,0,1.4-0.1,2.1-0.2v-1.8
		c-0.7,0.1-1.4,0.2-2.1,0.2c-20.6,0-34.2-35.1-49.9-75.8c-15.9-41.2-33.9-87.8-64.3-114.5l-0.6-0.6c-54.8-49.9-115.2-52-168.6-53.8
		c-11.4-0.4-22.2-0.8-32.5-1.6c-3.8-0.3-7.4-0.6-10.9-0.9c-32.1-2.5-55.3-4.2-66-19.6c-10.1-14.5-8.7-41.7,4.6-88.2
		c12.3-43,16.9-82.3,14-120.1c-6-77.1-38.2-146.4-69.4-213.4c-32.5-69.9-63.3-136-47.2-181.4c26.8-75.5,156-208.8,209.5-216.1
		c1.2-0.2,3.3-0.4,6.3-0.4c44.7,0,145.8,37.2,277,117.5v-2.1c-131-80.1-232.2-117.2-277-117.2c-3.2,0-5.3,0.2-6.6,0.4
		c-53.9,7.4-184.1,141.4-211,217.3c-16.3,46.1,14.6,112.4,47.3,182.8c31.1,66.8,63.2,135.9,69.2,212.7c2.9,37.6-1.6,76.7-13.9,119.5
		C2294.4,1597.6,2293.1,1624.5,2303.6,1639.7z"/>
	<path class="st1" d="M1209.6,2182.3c89.3-10.2,195.7-116.3,224.2-197.4c49.5-140.8-38.5-254.2-123.6-363.9
		c-82.2-105.8-159.8-205.8-122-327.5c32.9-106,139.1-163.3,222.3-163.3c44.9,0,83.7,15.9,109.3,44.8c30.4,34.3,42.4,86.4,34.5,150.8
		c-26.8,221-34.8,462.7,211.6,534c28.3,8.2,56.2,12.3,83,12.3c103.7,0,169.9-59.4,207.2-109.3c71.5-95.6,96.3-238.5,61.7-355.7
		c-29.3-99.4-86.9-195.8-176.2-294.7c-132.7-147-313.4-273.4-552.4-386.4l-10.3-4.9c-100.6-47.6-204.5-96.8-314-123.9
		c-6.5-1.6-13.7-3.5-21.3-5.6c-33.8-9-75.9-20.2-112-20.2c-14.5,0-27,1.9-37.2,5.5c-15.6,5.6-24.4,16.3-32.9,26.6
		c-6.3,7.7-12.9,15.7-22.2,21.4c-6.1,3.7-17.9,8.3-30.4,13.1c-20.2,7.8-41.2,15.9-47.8,23.7c-12.8,15-9.3,24-5.9,32.7
		c2.4,6.3,4.8,12.2,1.8,21l-2.4,7c-18.2,53.5-18.2,53.5-60.1,65.6c-8.1,2.3-18.2,5.3-30.1,9.1c-34.5,11-48.7,27.9-62.4,44.3
		c-10.5,12.6-20.5,24.5-39.2,34.1c-0.5,0-1.1,0-1.7,0c-21.6,0-185.4,10.8-198,51.1c-3.4,10.9,4,22.6,21.9,35
		c22.4,15.5,39.4,17.3,50.3,17.3c5.3,0,10.1-0.5,14.7-0.9c4-0.4,7.7-0.7,11.2-0.7c13.2,0,26.5,3.7,44.8,48.8
		c4.5,11.1,8,20.2,10.8,27.7c14.2,37.1,14.6,37.6,50.6,52.9c8.9,3.8,20,8.5,34.1,15.1c46.3,21.4,55.8,45.6,67.8,76.3
		c6.3,16.2,13.5,34.6,27.2,55.3c14.6,22.1,31.7,40,48.3,57.2c29.3,30.5,57,59.4,65.9,107.6c15.3,83.4-30,163.1-81.2,236.8
		c-24.8,35.7-75.9,77.3-129.9,121.4c-91.8,74.8-195.8,159.5-196.2,238c-0.2,44.8,11.3,79.2,34.2,102.2c25,25.1,62.9,37.3,116,37.3
		c77,0,171.5-26,255-48.8c65.7-18,122.4-33.6,158.7-33.6c8.2,0,15.2,0.8,20.7,2.5c35,10.4,62.7,32.6,89.6,54.1
		c35.6,28.5,69.2,55.4,117.3,55.4C1199.5,2183.2,1204.6,2182.9,1209.6,2182.3z M988.9,2069.7c-6-1.8-13.1-2.6-21.9-2.6
		c-36.8,0-93.8,15.6-159.8,33.7c-83.2,22.8-177.5,48.7-253.9,48.7c-51.9,0-88.9-11.8-113-36c-22.1-22.2-33.2-55.6-33-99.2
		c0.4-76.5,103.6-160.6,194.6-234.8c54.3-44.2,105.6-86,130.7-122.2c51.7-74.4,97.5-155,81.9-240c-9.1-49.4-37.2-78.7-67-109.7
		c-16.4-17.1-33.4-34.8-47.8-56.6c-13.4-20.3-20.5-38.5-26.8-54.5c-12.4-31.6-22.1-56.5-70-78.6c-14.2-6.5-25.3-11.3-34.3-15.1
		c-34.7-14.8-34.7-14.8-48.3-50.6c-2.9-7.6-6.4-16.7-10.9-27.8c-17.4-43-31.1-51.4-48.7-51.4c-3.7,0-7.6,0.4-11.6,0.8
		c-4.5,0.4-9.2,0.9-14.3,0.9c-11.1,0-26.7-1.9-47.9-16.6c-16.2-11.2-23.1-21.4-20.3-30.3c10.9-35,163.6-48.1,194-48.1
		c0.7,0,1.2,0,1.5,0l0.5-1.9l0.9,1.8c19.9-10.1,30.8-23,41.2-35.5c13.9-16.6,27.1-32.3,60.4-43c11.9-3.8,21.9-6.7,30-9
		c43.6-12.6,44.2-13.2,62.9-68.3l2.4-6.9c3.5-10.2,0.7-17.5-1.8-23.9c-3.2-8.3-6-15.4,5.1-28.5c5.9-7,27.3-15.2,46.1-22.5
		c12.7-4.9,24.7-9.5,31.1-13.4c10-6.1,16.7-14.3,23.3-22.3c8.5-10.3,16.5-20.1,31-25.3c9.8-3.5,21.8-5.3,35.8-5.3
		c35.6,0,77.4,11.1,110.9,20c7.7,2,14.9,4,21.4,5.6c109.1,27,212.9,76.1,313.2,123.6l10.3,4.9c238.5,112.8,418.8,238.8,551.1,385.4
		c88.8,98.4,146.2,194.3,175.3,293c34.2,116,9.6,257.5-61.1,352c-36.7,49.1-101.9,107.6-203.8,107.6c-26.4,0-53.9-4.1-81.8-12.2
		c-243.2-70.3-235.2-310.2-208.6-529.4c8-65.5-4.3-118.8-35.6-154c-26.4-29.8-66.3-46.2-112.4-46.2c-84.7,0-192.8,58.3-226.3,166.2
		c-38.4,123.8,43.5,229.3,122.7,331.4c84.4,108.8,171.8,221.3,123,359.9c-28.1,80-132.9,184.7-220.7,194.7
		c-4.9,0.6-9.8,0.8-14.5,0.8c-46.6,0-79.7-26.4-114.7-54.5C1052.8,2102.8,1024.7,2080.3,988.9,2069.7z"/>
	<path class="st1" d="M1312.9,218.4c20.4,0,42.9-5,62.8-9.4c10.2-2.3,19.8-4.4,27.5-5.4c14.5-2,28.6-2.8,42.2-3.6
		c28.4-1.6,55.2-3.2,76.5-15.3c17.1-9.8,29.6-25.8,38.2-49.1c15.4-41.9,34.4-88.9,61.4-135.6h-2.1c-26.8,46.5-45.7,93.3-61,135
		c-8.4,22.9-20.7,38.6-37.4,48.2c-20.9,11.9-47.5,13.4-75.7,15c-13.7,0.8-27.8,1.6-42.4,3.6c-7.8,1-17.4,3.2-27.6,5.5
		c-19.8,4.4-42.2,9.4-62.4,9.4c-19.8,0-33.9-4.8-43-14.8c-22.1-24.2-11-79.4-5.1-109.1l0.9-4.7c6.7-34.2,17.6-63.3,32.9-88.1h-2.1
		c-15.1,24.8-25.8,53.8-32.5,87.8l-0.9,4.7c-6,30-17.2,85.8,5.5,110.6C1278.1,213.4,1292.5,218.4,1312.9,218.4z"/>
	<path class="st1" d="M1777.4,0h-4.1c-7.5,7.9-13.8,15.2-18.7,21.8c-66.2,90-95.5,173-89.7,253.8c2.3,31.5-1.6,52.3-11.8,63.6
		c-6.5,7.2-15.8,10.8-28.3,10.8c-17.5,0-39-6.7-61.7-13.7c-20.7-6.4-42.1-13-62.2-15.2c-15.2-1.7-30.4-2.5-46.5-2.5
		c-50.8,0-99.2,8.1-150.3,16.7c-8.6,1.4-17.2,2.9-25.9,4.3l-0.7,0.1c-17.9,2.9-38.3,6.2-58.1,6.2c-37.4,0-61.4-12.4-73.3-38
		c-24.8-53.4-17.8-117.6-11.7-174.2c0.8-7.6,1.6-15.2,2.4-22.6c4.1-41.4,11.2-78.2,21.8-111.1h-3.2c-10.4,32.9-17.5,69.6-21.6,110.8
		c-0.7,7.4-1.5,15-2.4,22.6c-6.1,57.1-13.1,121.7,12,175.8c12.4,26.7,37.3,39.7,76,39.7c20.1,0,40.5-3.3,58.6-6.3l0.7-0.1
		c8.7-1.4,17.3-2.9,25.9-4.3c51-8.5,99.2-16.6,149.8-16.6c16,0,31.1,0.8,46.1,2.4c19.9,2.2,41.1,8.7,61.7,15.1
		c23,7.1,44.7,13.8,62.6,13.8c13.5,0,23.5-3.8,30.6-11.8c10.8-12,14.9-33.5,12.6-65.9c-5.7-80.1,23.4-162.5,89.1-251.9
		C1762.2,16.5,1769.2,8.6,1777.4,0z"/>
	<path class="st1" d="M1757.9,454.8c-20.3,14.4-48.2,21.4-85.1,21.4c-43.4,0-92-9.7-134.8-18.3c-25.2-5.1-49.1-9.8-68.6-11.9
		c-9.5-1-35.1-3.4-66.7-3.4c-58.5,0-133.4,7.9-158.6,45.7c-11,16.4-11.4,37-1.3,61.3c4.7,11.4,17,17.6,28.8,23.6
		c9.4,4.7,19,9.6,24.4,16.9c6.4,8.7,10.1,20.8,13.8,32.5c4.8,15.6,9.8,31.8,21.2,41.3c14.1,11.8,29.5,17.3,48.6,17.3
		c13.3,0,26.8-2.7,39.9-5.3c12.9-2.6,26.3-5.2,39.3-5.2c12.4,0,23.2,2.5,33,7.5c23.8,12.3,33.9,28.8,43.6,44.8
		c12.7,20.9,24.6,40.6,64,49.8c82.4,19.3,105,39.4,159.5,88.1c7,6.3,14.6,13,22.9,20.3c19.6,17.2,34.1,36.9,48.2,55.9
		c12.5,17,25.4,34.5,42.1,50.6c20.5,19.7,39.8,28.5,58.4,37c24.9,11.3,48.3,22,69.7,58.6l3.3,5.7c26.8,46.3,53.9,89.2,70.5,89.2
		c2.7,0,5-1,6.9-3.1c6-6.6,7.6-24,5-53.4c-1.6-17.2-14-32.6-26-47.5c-13-16-25.2-31.2-24.5-47.9c0.9-20.1,13-29.9,25.9-40.4
		c9.4-7.6,19.1-15.6,24.8-27.8c13.7-29.4,17-55.8,20.2-81.3c4.5-35.5,8.7-69,40.4-106.9c56.8-67.9,136.6-119.1,224.5-144.3
		c29.3-8.4,56.4-12.5,82.9-12.5c89.9,0,154.3,48.9,222.6,100.6c7.7,5.9,15.5,11.8,23.4,17.6v-5.2c-7-5.2-14-10.5-20.9-15.7
		c-68.8-52.2-133.9-101.5-225.1-101.5c-26.9,0-54.4,4.1-84,12.7c-88.7,25.5-169.2,77.2-226.6,145.7c-32.6,38.9-36.8,73-41.4,109.1
		c-3.2,25.2-6.4,51.2-19.8,80.1c-5.3,11.4-14.6,19-23.7,26.3c-13,10.6-26.4,21.5-27.4,43.5c-0.8,18.3,12.5,34.8,25.4,50.7
		c11.6,14.4,23.7,29.3,25.1,45.2c3.1,34.5-0.4,46.4-3.9,50.2c-1.1,1.2-2.3,1.8-3.8,1.8c-16.5,0-51.8-61.1-66.9-87.1l-3.3-5.8
		c-22-37.7-46.1-48.7-71.5-60.3c-18.3-8.3-37.3-17-57.3-36.2c-16.4-15.8-29.2-33.2-41.6-50c-14.2-19.2-28.8-39.1-48.8-56.6
		c-8.3-7.3-15.8-14-22.8-20.3c-55.1-49.2-77.9-69.5-161.4-89.1c-37.7-8.8-49.2-27.8-61.3-47.9c-10-16.5-20.3-33.6-45.3-46.4
		c-10.4-5.4-21.9-8-35-8c-13.3,0-26.9,2.7-40.1,5.3c-12.9,2.6-26.3,5.2-39.1,5.2c-18.1,0-32.7-5.2-45.9-16.4
		c-10.4-8.7-15.2-24.3-19.9-39.3c-3.7-12.1-7.6-24.5-14.4-33.8c-6-8.1-16.1-13.2-25.9-18.2c-11.7-5.9-22.7-11.5-26.8-21.4
		c-9.5-22.9-9.2-42.2,0.9-57.3c24.2-36.2,97.7-43.8,155.1-43.8c31.4,0,56.8,2.3,66.3,3.4c19.3,2.1,43,6.8,68.2,11.8
		c43,8.6,91.8,18.4,135.6,18.4c37.8,0,66.5-7.2,87.6-22.1c52.5-37.1,37.4-93.1,22.9-147.3c-15.6-57.8-31.6-117.6,33-156.7
		c7.8-4.7,18.1-7.1,30.8-7.1c38.7,0,93.2,21.1,145.8,41.6c45.9,17.8,89.2,34.6,117.4,35.3c4.1,0.1,8.1,0.1,12.2,0.1c0,0,0,0,0,0
		c60.6,0,121.9-10.5,181.1-20.6c59.1-10.1,120.3-20.5,180.7-20.5c42.2,0,80.4,5,116.6,15.4c33.5,9.6,66.5,22.2,99.1,36.6v-4.6
		c-32.2-14.2-64.9-26.6-98-36.1c-36.6-10.4-75.1-15.5-117.7-15.5c-60.7,0-122.1,10.5-181.4,20.6c-59.1,10.1-120.2,20.5-180.4,20.5
		c-4.1,0.1-8.1,0-12.1-0.1c-27.5-0.6-70.5-17.3-116-35c-53.1-20.6-107.9-41.9-147.4-41.9c-13.7,0-24.4,2.5-33,7.7
		c-67.4,40.7-50.9,102-34.9,161.4C1794,367.3,1808,419.4,1757.9,454.8z"/>
	<path class="st1" d="M1247.6,301.6c12.8,0,27.7-1.6,49.8-5.3c56-9.4,111.6-13.8,174.9-13.8c15.9,0,32.2,0.3,50,0.8
		c6.2,0.2,11.5,0.3,16.4,0.3c29.3,0,46.4-3.6,59.1-12.3c15.1-10.4,24-28.7,30-61.1C1641.2,135.8,1671,69,1721.5,0h-2.2
		c-50.1,68.8-79.8,135.6-93.4,209.9c-5.8,31.9-14.6,49.8-29.2,60c-12.3,8.5-29.1,12-58,12c-4.9,0-10.2-0.1-16.3-0.3
		c-17.7-0.5-34.1-0.8-50-0.8c-63.4,0-119.1,4.4-175.2,13.8c-22,3.7-36.8,5.3-49.5,5.3c-36.2,0-62.1-12.1-71.1-71.3
		c-8.6-56.5-1-116.4,7-156.7c5.1-26,12.2-49.8,21.1-71.8h-1.9c-8.9,21.9-15.9,45.6-21,71.5c-8,40.4-15.7,100.5-7,157.3
		C1182.5,280.5,1203.7,301.6,1247.6,301.6z"/>
	<path class="st1" d="M1272.3,256.5L1272.3,256.5c5.6,0,11.7-0.5,18.1-1.6c47.7-8,98.7-12.7,151.7-14c12.4-0.3,24.2,0,35.6,0.3
		c7.6,0.2,14.8,0.4,21.8,0.4c21.6,0,43.9-1.7,61.2-13.8c14.3-10,24.5-26.7,31.1-50.9c18-65.7,43.9-123.8,78.7-176.9h-2.1
		c-34.5,53-60.3,111-78.3,176.4c-6.5,23.8-16.5,40.1-30.4,49.9c-16.8,11.8-38.9,13.4-60.1,13.4c-7,0-14.2-0.2-21.8-0.4
		c-11.4-0.3-23.2-0.6-35.7-0.3c-53.1,1.3-104.2,6-152,14c-27.4,4.6-47.8-0.9-60.5-16.4c-29-35.2-13.4-114.3-5-156.8
		c5.9-29.7,14.6-56.2,26.2-80h-2c-11.4,23.7-20.1,50.1-25.9,79.6c-8.4,42.8-24.1,122.3,5.4,158.2
		C1238.4,250.2,1253.2,256.5,1272.3,256.5z"/>
</g>
</svg>
